<?xml version="1.0" standalone="no"?>
<!DOCTYPE svg PUBLIC "-//W3C//DTD SVG 20010904//EN"
 "http://www.w3.org/TR/2001/REC-SVG-20010904/DTD/svg10.dtd">
<svg version="1.0" xmlns="http://www.w3.org/2000/svg"
 width="256.000000pt" height="256.000000pt" viewBox="0 0 256.000000 256.000000"
 preserveAspectRatio="xMidYMid meet">

<g transform="translate(0.000000,256.000000) scale(0.100000,-0.100000)"
fill="#000000" stroke="none">
<path d="M195 2551 c-69 -17 -134 -70 -171 -141 -18 -33 -19 -83 -22 -1105 -2
-1216 -7 -1143 77 -1226 84 -84 10 -80 1227 -77 l1069 3 40 22 c47 25 95 74
121 123 18 34 19 81 19 1130 l0 1095 -22 40 c-25 47 -74 95 -123 121 -33 18
-82 19 -1110 21 -591 0 -1088 -2 -1105 -6z m1965 -75 c0 -3 -4 -8 -10 -11 -5
-3 -10 -1 -10 4 0 6 5 11 10 11 6 0 10 -2 10 -4z m55 -5 c7 -12 -12 -24 -25
-16 -11 7 -4 25 10 25 5 0 11 -4 15 -9z m-1580 -41 c3 -5 1 -10 -4 -10 -6 0
-11 5 -11 10 0 6 2 10 4 10 3 0 8 -4 11 -10z m488 -100 c19 -13 40 -33 47 -44
8 -13 -1 -9 -21 11 -19 17 -47 37 -62 42 -32 12 -93 13 -120 2 -16 -6 -16 -9
8 -31 14 -13 25 -27 25 -32 0 -4 15 -23 33 -41 27 -29 74 -89 112 -145 6 -8
19 -24 30 -36 25 -27 98 -114 107 -129 4 -6 10 -8 14 -5 11 12 -45 177 -87
257 -21 41 -37 76 -36 78 2 1 20 -26 39 -62 44 -79 87 -207 131 -388 l33 -137
81 102 c45 57 94 114 109 128 15 14 -9 -20 -54 -75 l-81 -100 25 -15 c13 -8
24 -18 24 -23 0 -4 16 -24 35 -44 19 -20 35 -43 35 -52 1 -9 40 24 92 79 87
91 88 92 27 19 -35 -42 -101 -117 -146 -167 -46 -51 -83 -97 -84 -104 -3 -36
4 -81 26 -158 13 -47 36 -154 50 -239 36 -217 45 -251 60 -251 12 0 55 -95 55
-121 0 -5 14 -37 30 -70 35 -68 90 -133 131 -155 63 -32 162 -6 238 62 27 24
54 44 60 44 6 0 11 -18 11 -41 0 -38 -6 -48 -82 -125 -94 -97 -140 -126 -220
-144 -115 -26 -232 24 -317 133 -52 68 -107 185 -121 256 -6 31 -19 74 -28 95
-9 22 -17 44 -17 50 0 6 -5 20 -12 31 -6 11 -20 63 -32 115 -21 98 -57 229
-65 237 -2 2 -102 -105 -222 -239 -332 -370 -586 -624 -668 -668 -24 -12 -29
-12 -37 0 -27 40 30 144 149 273 29 32 61 77 71 101 10 23 111 153 224 289
114 136 225 274 248 308 23 34 72 94 109 133 95 101 94 98 71 213 -11 54 -24
129 -31 168 -6 38 -26 131 -45 206 -18 76 -31 146 -28 157 7 30 -60 155 -107
194 -22 19 -40 40 -40 46 0 18 82 42 137 38 34 -2 63 -11 86 -26z m-743 -205
c0 -8 -7 -15 -15 -15 -16 0 -20 12 -8 23 11 12 23 8 23 -8z m1260 -148 c0 -2
-10 -12 -22 -23 l-23 -19 19 23 c18 21 26 27 26 19z m-880 -27 c0 -5 -4 -10
-10 -10 -5 0 -10 5 -10 10 0 6 5 10 10 10 6 0 10 -4 10 -10z m-615 -20 c3 -5
1 -10 -4 -10 -6 0 -11 5 -11 10 0 6 2 10 4 10 3 0 8 -4 11 -10z m1635 -113 c0
-2 -10 -12 -22 -23 l-23 -19 19 23 c18 21 26 27 26 19z m520 -7 c0 -5 -4 -10
-10 -10 -5 0 -10 5 -10 10 0 6 5 10 10 10 6 0 10 -4 10 -10z m-1767 -95 c7 -2
26 -7 42 -11 l30 -8 -40 -5 c-38 -6 -40 -8 -44 -46 l-4 -40 -12 40 c-10 34
-16 41 -46 46 l-34 5 34 10 c28 8 37 17 45 45 l10 34 4 -33 c2 -18 9 -35 15
-37z m1770 -203 c15 -2 27 -7 27 -12 0 -5 -12 -10 -27 -12 -23 -2 -29 -9 -34
-38 -4 -19 -8 -27 -9 -17 -4 29 -5 32 -13 45 -5 6 -19 12 -33 12 -13 0 -24 5
-24 10 0 6 10 10 23 10 30 0 47 17 48 50 1 19 3 17 8 -10 5 -29 11 -36 34 -38z
m-1493 -82 c0 -5 -4 -10 -10 -10 -5 0 -10 5 -10 10 0 6 5 10 10 10 6 0 10 -4
10 -10z m-550 -30 c0 -5 -4 -10 -10 -10 -5 0 -10 5 -10 10 0 6 5 10 10 10 6 0
10 -4 10 -10z m1590 -11 c0 -5 -7 -9 -15 -9 -15 0 -20 12 -9 23 8 8 24 -1 24
-14z m-1370 -99 c0 -5 -4 -10 -10 -10 -5 0 -10 5 -10 10 0 6 5 10 10 10 6 0
10 -4 10 -10z m-70 -50 c0 -5 -4 -10 -10 -10 -5 0 -10 5 -10 10 0 6 5 10 10
10 6 0 10 -4 10 -10z m1765 -130 c3 -5 1 -10 -4 -10 -6 0 -11 5 -11 10 0 6 2
10 4 10 3 0 8 -4 11 -10z m-525 -90 c0 -5 -4 -10 -10 -10 -5 0 -10 5 -10 10 0
6 5 10 10 10 6 0 10 -4 10 -10z m760 -120 c0 -5 -2 -10 -4 -10 -3 0 -8 5 -11
10 -3 6 -1 10 4 10 6 0 11 -4 11 -10z m-2220 -10 c0 -5 -4 -10 -10 -10 -5 0
-10 5 -10 10 0 6 5 10 10 10 6 0 10 -4 10 -10z m1004 -11 c-3 -5 -10 -7 -15
-3 -5 3 -7 10 -3 15 3 5 10 7 15 3 5 -3 7 -10 3 -15z m-286 -320 c-2 -6 -8
-10 -13 -10 -5 0 -11 4 -13 10 -2 6 4 11 13 11 9 0 15 -5 13 -11z m1372 -329
c0 -5 -4 -10 -10 -10 -5 0 -10 5 -10 10 0 6 5 10 10 10 6 0 10 -4 10 -10z
m-1182 -52 c-6 -18 -28 -21 -28 -4 0 9 7 16 16 16 9 0 14 -5 12 -12z"/>
<path d="M965 2270 c10 -11 20 -20 23 -20 3 0 -3 9 -13 20 -10 11 -20 20 -23
20 -3 0 3 -9 13 -20z"/>
<path d="M1482 923 c22 -153 48 -245 95 -335 38 -72 101 -151 137 -170 11 -6
0 11 -26 39 -86 93 -139 236 -198 536 -21 106 -27 58 -8 -70z"/>
</g>
</svg>
