<?xml version="1.0" encoding="UTF-8"?>
<svg version="1.1" viewBox="0 0 40 440" xml:space="preserve" xmlns="http://www.w3.org/2000/svg" xmlns:xlink="http://www.w3.org/1999/xlink"><defs><linearGradient id="e"><stop stop-color="#00f" offset="0"/><stop stop-color="#e2e9ee" offset="1"/></linearGradient><linearGradient id="d"><stop stop-color="#c8c8ff" offset="0"/><stop stop-color="#9b9bff" offset="1"/></linearGradient><linearGradient id="a"><stop stop-color="#6a6aff" offset="0"/><stop stop-color="#c8c8e7" offset="1"/></linearGradient><linearGradient id="o" x1="541.57" x2="689.73" y1="1282.4" y2="1297.1" gradientTransform="matrix(.33881 0 0 .3392 -165.97 -346.55)" gradientUnits="userSpaceOnUse" xlink:href="#e"/><linearGradient id="n" x1="610.64" x2="462.48" y1="1359.1" y2="1373.8" gradientTransform="matrix(.33881 0 0 .3392 -88.964 -372.57)" gradientUnits="userSpaceOnUse" xlink:href="#e"/><linearGradient id="m" x1="-1700" x2="-1340" y1="-3107.6" y2="-2747.6" gradientTransform="matrix(.13944 0 0 .12893 254.59 489.12)" gradientUnits="userSpaceOnUse" xlink:href="#d"/><linearGradient id="l" x1="-980" x2="-1340" y1="-3107.6" y2="-2747.6" gradientTransform="matrix(.13944 0 0 .12893 254.59 489.12)" gradientUnits="userSpaceOnUse" xlink:href="#d"/><linearGradient id="k" x1="448.16" x2="448.16" y1="1385" y2="1507.3" gradientTransform="matrix(.33865 0 0 .33862 -84.037 -375.54)" gradientUnits="userSpaceOnUse" xlink:href="#d"/><linearGradient id="j" x1="-1340" x2="-1340" y1="-3644.1" y2="-3107.3" gradientTransform="matrix(.13944 0 0 .12893 254.59 488.95)" gradientUnits="userSpaceOnUse" xlink:href="#e"/><linearGradient id="i" x1="-1700" x2="-1340" y1="-3107.6" y2="-2747.6" gradientTransform="matrix(.13944 0 0 .12893 254.59 447.67)" gradientUnits="userSpaceOnUse" xlink:href="#a"/><linearGradient id="h" x1="-980" x2="-1340" y1="-3107.6" y2="-2747.6" gradientTransform="matrix(.13944 0 0 .12893 254.59 447.67)" gradientUnits="userSpaceOnUse" xlink:href="#a"/><linearGradient id="g" x1="165.66" x2="165.66" y1="568.89" y2="691.23" gradientTransform="matrix(.33865 0 0 .33862 -38.57 -145.62)" gradientUnits="userSpaceOnUse" xlink:href="#a"/><linearGradient id="f" x1="462.14" x2="462.14" y1="568.89" y2="691.23" gradientTransform="matrix(.33865 0 0 .33862 -38.57 -145.62)" gradientUnits="userSpaceOnUse" xlink:href="#a"/></defs><g transform="matrix(.23623 0 0 .23625 3.1269 393.84)"><g fill-rule="evenodd" stroke-width=".33863"><path d="m17.53 47.014 50.201-46.415 50.201 46.415v41.427l-50.201 46.415-50.201-46.415z" fill="#fff"/><path d="m17.53 47.014v41.427l50.201 46.415v-41.427z" fill="url(#o)"/><path d="m67.731 134.86v-41.427l50.201-46.415v41.427z" fill="url(#n)"/></g><g stroke-linecap="round" stroke-width="1.1938"><path d="m17.53 88.441 50.201 46.415" fill="none" stroke="url(#m)"/><path d="m117.93 88.441-50.201 46.415" fill="none" stroke="url(#l)"/><path d="m67.731 93.429v41.427" fill="#a0b4d1" fill-rule="evenodd" stroke="url(#k)"/></g><path d="m67.731 0.59974-50.201 46.415 50.201 46.415 50.201-46.415z" fill="url(#j)" fill-rule="evenodd" stroke-width=".33863"/><g fill="none" stroke-linecap="round" stroke-width="1.1938"><path d="m17.53 47.014 50.201 46.415" stroke="url(#i)"/><path d="m117.93 47.014-50.201 46.415" stroke="url(#h)"/><path d="m17.53 47.014 50.201-46.415" stroke="#6a6aff"/><path d="m117.93 47.014-50.201-46.415" stroke="#6a6aff"/><path d="m17.53 47.014v41.427" stroke="url(#g)"/><path d="m117.93 47.014v41.427" stroke="url(#f)"/></g></g><g fill="#f60"><path d="m18.414 387.32v-4.0736c1.5e-5 -1.8795-0.27431-3.2287-0.82295-4.0478-0.55647-0.81902-1.4539-1.2286-2.6922-1.2286-1.1756 1e-5 -2.0378 0.36642-2.5864 1.0992-0.55646 0.73283-0.83469 1.8752-0.83472 3.427v4.8237h6.9363m8.9585 1.7458h-17.317v-6.6471c1.5e-5 -2.0778 0.40757-3.6382 1.2227-4.6814s2.03-1.5648 3.6445-1.5648c1.6694 1e-5 2.9117 0.58627 3.7268 1.7588 0.80729 1.1639 1.2109 2.9442 1.2109 5.341v4.0478h7.5124v1.7458"/><path d="m12.23 374.36h-2.175v-1.5777h2.175v1.5777m15.142 0h-12.497v-1.5777h12.497v1.5777"/><path d="m27.372 371.51-6.4073-4.8237-6.0899 4.6168v-1.9916l4.9848-3.6081-4.9848-3.5434v-1.9269l6.0664 4.5004 6.4308-5.0048v2.0045l-5.3022 3.9443 5.3022 3.9314v1.901"/><path d="m27.372 358.58h-17.317v-1.7976h17.317v1.7976"/><path d="m27.372 354.44h-12.497v-1.5389h1.9986c-0.76808-0.51728-1.3441-1.1553-1.7282-1.914-0.39187-0.75868-0.58781-1.6381-0.58783-2.6382 1.5e-5 -0.94835 0.15285-1.7803 0.45851-2.4959 0.30568-0.71557 0.74067-1.263 1.305-1.6424 0.29-0.19828 0.6427-0.34053 1.0581-0.42676 0.40757-0.0862 1.0816-0.12931 2.0221-0.12932h7.9709v1.6424h-7.7476c-1.4656 2e-5 -2.4571 0.25004-2.9744 0.75008-0.52511 0.49142-0.78767 1.3622-0.78769 2.6123 1.4e-5 1.2846 0.3723 2.3019 1.1169 3.052 0.73675 0.74144 1.7439 1.1122 3.0214 1.1122h7.3713v1.6165"/><path d="m23.481 341.84v-1.5907c0.86215-0.0431 1.5636-0.40089 2.1044-1.0734 0.53297-0.68109 0.79945-1.5519 0.79945-2.6123 0-1.1466-0.20378-2.0476-0.61135-2.7028-0.41539-0.66384-0.97578-0.99577-1.6812-0.99578-1.0111 1e-5 -1.7831 1.2199-2.316 3.6598-0.0078 0.0345-0.01175 0.0561-0.01175 0.0646-0.43107 1.9657-0.90524 3.2848-1.4225 3.9572-0.51728 0.66385-1.2383 0.99577-2.1632 0.99577-1.0738 0-1.9437-0.43538-2.6099-1.3062-0.67403-0.87938-1.011-2.0217-1.0111-3.427 1.5e-5 -1.5432 0.35271-2.7718 1.0581-3.6857 0.69757-0.91387 1.6694-1.4182 2.9156-1.5131v1.6165c-0.84646 0.069-1.5048 0.41815-1.9751 1.0475-0.47809 0.62937-0.71714 1.4829-0.71715 2.5606 7e-6 0.93974 0.19595 1.6898 0.58782 2.2502 0.3919 0.5604 0.90919 0.8406 1.5519 0.84059 1.113 1e-5 1.9359-1.2501 2.4689-3.7503 0.07053-0.32761 0.12149-0.57331 0.15284-0.73713 0.3527-1.5691 0.79161-2.6597 1.3167-3.2718 0.52513-0.61212 1.2619-0.91818 2.2102-0.91819 1.0581 1e-5 1.9202 0.48281 2.5864 1.4484 0.6662 0.95699 0.9993 2.22 0.99931 3.7891-7e-6 1.595-0.38405 2.8752-1.1521 3.8408-0.76809 0.96561-1.7948 1.47-3.0802 1.5131"/><path d="m12.23 329.15h-2.175v-1.5777h2.175v1.5777m15.142 0h-12.497v-1.5777h12.497v1.5777"/><path d="m21.141 323.9c1.6538 0 2.9548-0.40952 3.9032-1.2286 0.94052-0.82765 1.4108-1.9614 1.4108-3.4012 0-1.4742-0.46634-2.6209-1.399-3.44-0.93268-0.81903-2.2377-1.2285-3.9149-1.2286-1.6851 2e-5 -2.9901 0.40953-3.9149 1.2286-0.92483 0.81043-1.3873 1.9571-1.3873 3.44 7e-6 1.4829 0.45851 2.6252 1.3755 3.427 0.91702 0.8018 2.2259 1.2027 3.9267 1.2027m-6.2662-10.76h11.851c1.9046 1e-5 3.3428 0.55179 4.3146 1.6553 0.97186 1.0949 1.4578 2.7158 1.4578 4.8625-8e-6 1.6036-0.32919 2.9011-0.98755 3.8926-0.65052 0.98285-1.5401 1.5217-2.6687 1.6165v-1.6295c0.76026-0.0948 1.3442-0.46986 1.7517-1.1251 0.40756-0.66385 0.61134-1.5734 0.61134-2.7287 0-1.6553-0.37229-2.8968-1.1169-3.7245-0.74458-0.83628-1.8497-1.2544-3.3153-1.2544h-1.5401c0.8308 0.56041 1.4539 1.2415 1.8693 2.0433 0.40756 0.79318 0.61134 1.7114 0.61135 2.7546-7e-6 1.8881-0.58391 3.3753-1.7517 4.4616-1.1756 1.0863-2.7824 1.6295-4.8202 1.6295-2.0221 0-3.6249-0.54747-4.8084-1.6424-1.1835-1.1036-1.7752-2.5864-1.7752-4.4487 1.5e-5 -1.0604 0.20772-1.9872 0.6231-2.7804 0.41541-0.79316 1.0346-1.457 1.8575-1.9916h-2.1632v-1.5907"/><path d="m27.372 311.08h-17.317v-1.6165h6.7718c-0.74456-0.50866-1.3089-1.1423-1.6929-1.901-0.38403-0.75868-0.57606-1.6338-0.57607-2.6252 1.5e-5 -0.91387 0.15677-1.7329 0.47026-2.4571 0.31352-0.7242 0.7446-1.276 1.2932-1.6553 0.29784-0.19829 0.66229-0.34054 1.0934-0.42677 0.43108-0.0862 1.2148-0.12931 2.3513-0.12932h7.6065v1.6165h-7.583c-1.5597 2e-5 -2.6021 0.24573-3.1272 0.73714-0.53295 0.49143-0.79943 1.3665-0.79944 2.6252 1.4e-5 1.2846 0.37622 2.3106 1.1286 3.0779 0.74459 0.75869 1.7478 1.138 3.0097 1.138h7.3713v1.6165"/><path d="m11.289 296.31h3.5857v-2.5476h1.1756v2.5476h9.1113c0.53297 0 0.88566-0.0733 1.0581-0.21985 0.17243-0.14656 0.25864-0.40951 0.25864-0.78886 0-0.1638-0.01175-0.34917-0.03526-0.55609-0.03132-0.2069-0.09013-0.53021-0.17634-0.96991l1.1521-0.0129c0.09405 0.38797 0.16067 0.74145 0.19986 1.0604 0.04702 0.319 0.07053 0.62075 0.07053 0.90525 0 0.79318-0.18027 1.3536-0.5408 1.6812-0.36837 0.32762-1.0307 0.49143-1.9869 0.49143h-9.1113v1.8752h-1.1756v-1.8752h-3.5857v-1.5907"/></g><g fill="#06f"><path d="m18.202 284.27v-5.0565c7e-6 -1.776-0.27431-3.052-0.82296-3.8279-0.54863-0.78453-1.4382-1.1768-2.6687-1.1768-0.5643 1e-5 -1.0738 0.12502-1.5283 0.37503-0.45457 0.24141-0.81902 0.59058-1.0934 1.0475-0.21944 0.3535-0.3762 0.77595-0.47026 1.2674-0.09404 0.49143-0.14106 1.2975-0.14108 2.4183v4.953h6.7247m9.1701 1.7458h-17.317v-6.3497c1.5e-5 -1.4742 0.05491-2.539 0.16459-3.1942 0.10974-0.66384 0.29001-1.2415 0.54079-1.7329 0.38406-0.75006 0.91703-1.3277 1.5989-1.7329 0.67406-0.40519 1.4421-0.60779 2.3043-0.60781 1.0659 2e-5 1.9634 0.26297 2.6922 0.78886 0.72891 0.52593 1.2501 1.2889 1.5636 2.289 0.23514-0.77592 0.59567-1.332 1.0816-1.6682 0.48594-0.33622 1.4656-0.57331 2.9391-0.71127l2.5982-0.24571c0.40757-0.0345 0.74459-0.10344 1.0111-0.20692 0.26648-0.10344 0.46243-0.23707 0.58783-0.4009h0.23513v1.9398c-0.18027 0.10347-0.4154 0.18969-0.70539 0.25865-0.28999 0.069-0.6466 0.12071-1.0698 0.15518l-2.2925 0.21985c-1.5832 0.12933-2.5903 0.43971-3.0214 0.93111-0.4389 0.49144-0.65835 1.4786-0.65837 2.9615v5.5608h7.7476v1.7458"/><path d="m21.4 269.41h0.07053c1.5284 0 2.7471-0.4052 3.6563-1.2156 0.90133-0.81041 1.352-1.8967 1.352-3.2589 0-1.0777-0.26256-1.9786-0.78769-2.7028-0.53296-0.72419-1.2579-1.1639-2.175-1.3191v-1.5907c1.2697 0.17245 2.2886 0.77595 3.0567 1.8105 0.76026 1.0346 1.1404 2.3364 1.1404 3.9055-8e-6 1.8709-0.57607 3.3365-1.7282 4.3969s-2.751 1.5906-4.7967 1.5906c-2.0848 0-3.7111-0.53021-4.879-1.5906-1.1678-1.0691-1.7517-2.552-1.7517-4.4487 1.4e-5 -1.845 0.56041-3.2804 1.6812-4.3064 1.113-1.0346 2.6727-1.5518 4.6791-1.5519h0.48202v10.281m-1.1639-0.0259 0.01176-8.6128c-1.3794 0.069-2.461 0.48281-3.2448 1.2415-0.79159 0.75008-1.1874 1.7502-1.1874 3.0003 1.4e-5 1.2587 0.39973 2.2847 1.1992 3.0778 0.79946 0.78456 1.8732 1.2156 3.2213 1.2932"/><path d="m27.372 256.64h-11.322v2.0174h-1.1756v-2.0174h-2.2808c-0.94051 0-1.6263-0.25864-2.0574-0.77593-0.43106-0.51728-0.6466-1.3449-0.64661-2.483 1.46e-5 -0.12069 0.00789-0.2457 0.02351-0.37503 0.00789-0.13794 0.027453-0.2845 0.058776-0.43969h1.2932c1.5e-5 0.0345-0.0036 0.0862-0.01175 0.15518-0.02351 0.34487-0.03527 0.58627-0.03527 0.7242 1.4e-5 0.59489 0.11367 1.013 0.34094 1.2544 0.21947 0.2414 0.61135 0.3621 1.1756 0.3621h2.1397v-2.4959h1.1756v2.4959h11.322v1.5777"/><path d="m21.4 250.55h0.07053c1.5284 1e-5 2.7471-0.4052 3.6563-1.2156 0.90133-0.81041 1.352-1.8967 1.352-3.2589 0-1.0777-0.26256-1.9786-0.78769-2.7028-0.53296-0.72419-1.2579-1.1639-2.175-1.3191v-1.5906c1.2697 0.17244 2.2886 0.77594 3.0567 1.8105 0.76026 1.0346 1.1404 2.3364 1.1404 3.9055-8e-6 1.8709-0.57607 3.3365-1.7282 4.3969s-2.751 1.5907-4.7967 1.5907c-2.0848 0-3.7111-0.53022-4.879-1.5907-1.1678-1.0691-1.7517-2.552-1.7517-4.4487 1.4e-5 -1.845 0.56041-3.2804 1.6812-4.3064 1.113-1.0346 2.6727-1.5518 4.6791-1.5519h0.48202v10.281m-1.1639-0.0259 0.01176-8.6128c-1.3794 0.069-2.461 0.48282-3.2448 1.2415-0.79159 0.75008-1.1874 1.7502-1.1874 3.0003 1.4e-5 1.2587 0.39973 2.2847 1.1992 3.0779 0.79946 0.78455 1.8732 1.2156 3.2213 1.2932"/><path d="m27.372 238.56h-12.497v-1.5389h2.1867c-0.83862-0.39658-1.4656-0.94404-1.881-1.6424-0.41539-0.70696-0.62309-1.5734-0.6231-2.5994v-0.18105h1.5166v0.20691c7e-6 1.3708 0.36838 2.4011 1.1051 3.0908 0.73675 0.6811 1.8379 1.0216 3.3036 1.0216h6.8893v1.6424"/><path d="m21.4 230.6h0.07053c1.5284 0 2.7471-0.40521 3.6563-1.2156 0.90133-0.81041 1.352-1.8967 1.352-3.2589 0-1.0777-0.26256-1.9786-0.78769-2.7028-0.53296-0.72419-1.2579-1.1639-2.175-1.3191v-1.5907c1.2697 0.17244 2.2886 0.77594 3.0567 1.8105 0.76026 1.0346 1.1404 2.3364 1.1404 3.9055-8e-6 1.8709-0.57607 3.3365-1.7282 4.3969-1.1521 1.0604-2.751 1.5907-4.7967 1.5907-2.0848 0-3.7111-0.53022-4.879-1.5907-1.1678-1.0691-1.7517-2.5519-1.7517-4.4487 1.4e-5 -1.845 0.56041-3.2804 1.6812-4.3064 1.113-1.0346 2.6727-1.5518 4.6791-1.5519h0.48202v10.281m-1.1639-0.0259 0.01176-8.6128c-1.3794 0.069-2.461 0.48281-3.2448 1.2415-0.79159 0.75007-1.1874 1.7502-1.1874 3.0003 1.4e-5 1.2587 0.39973 2.2847 1.1992 3.0779 0.79946 0.78455 1.8732 1.2156 3.2213 1.2932"/><path d="m27.372 218.61h-12.497v-1.5389h1.9986c-0.76808-0.51728-1.3441-1.1553-1.7282-1.914-0.39187-0.75868-0.58781-1.6381-0.58783-2.6382 1.5e-5 -0.94835 0.15285-1.7803 0.45851-2.4959 0.30568-0.71557 0.74067-1.263 1.305-1.6424 0.29-0.19828 0.6427-0.34054 1.0581-0.42676 0.40757-0.0862 1.0816-0.12931 2.0221-0.12933h7.9709v1.6424h-7.7476c-1.4656 1e-5 -2.4571 0.25003-2.9744 0.75007-0.52511 0.49143-0.78767 1.3622-0.78769 2.6123 1.4e-5 1.2846 0.3723 2.3019 1.1169 3.052 0.73675 0.74145 1.7439 1.1122 3.0214 1.1122h7.3713v1.6165"/><path d="m23.058 195.97v-1.5907c1.4343 0.14658 2.5668 0.72852 3.3976 1.7458 0.82295 1.0174 1.2344 2.3407 1.2344 3.9702 0 1.8622-0.57999 3.3322-1.74 4.4099-1.16 1.0691-2.7393 1.6036-4.7379 1.6036-2.0691 0-3.6955-0.54315-4.879-1.6294-1.1835-1.0949-1.7752-2.5907-1.7752-4.4875 1.5e-5 -1.5432 0.39582-2.8106 1.1874-3.802 0.78378-1.0001 1.8184-1.5389 3.1037-1.6165v1.526c-0.90916 0.12933-1.6381 0.55178-2.1867 1.2674-0.54863 0.70697-0.82294 1.582-0.82295 2.6252 7e-6 1.3708 0.47027 2.4614 1.4108 3.2718 0.94053 0.80179 2.2181 1.2027 3.8326 1.2027 1.6538 0 2.9626-0.40521 3.9267-1.2156 0.96404-0.81903 1.4461-1.914 1.4461-3.2848 0-1.069-0.30175-1.9614-0.90525-2.677-0.6035-0.71557-1.4343-1.1553-2.4924-1.3191"/><path d="m21.4 191.93h0.07053c1.5284 1e-5 2.7471-0.4052 3.6563-1.2156 0.90133-0.81041 1.352-1.8967 1.352-3.2589 0-1.0777-0.26256-1.9786-0.78769-2.7028-0.53296-0.7242-1.2579-1.1639-2.175-1.3191v-1.5906c1.2697 0.17244 2.2886 0.77594 3.0567 1.8105 0.76026 1.0346 1.1404 2.3364 1.1404 3.9055-8e-6 1.8709-0.57607 3.3365-1.7282 4.3969s-2.751 1.5907-4.7967 1.5906c-2.0848 1e-5 -3.7111-0.53021-4.879-1.5906-1.1678-1.0691-1.7517-2.552-1.7517-4.4487 1.4e-5 -1.845 0.56041-3.2804 1.6812-4.3064 1.113-1.0346 2.6727-1.5518 4.6791-1.5519h0.48202v10.281m-1.1639-0.0259 0.01176-8.6128c-1.3794 0.069-2.461 0.48281-3.2448 1.2415-0.79159 0.75008-1.1874 1.7502-1.1874 3.0003 1.4e-5 1.2587 0.39973 2.2847 1.1992 3.0778 0.79946 0.78456 1.8732 1.2156 3.2213 1.2932"/><path d="m25.95 171.91v-3.6857c0-1.4398-0.04702-2.4916-0.14108-3.1554-0.10189-0.66384-0.2704-1.2156-0.50553-1.6553-0.52512-0.96559-1.3246-1.6855-2.3983-2.1597-1.0816-0.47416-2.4728-0.71125-4.1736-0.71127-1.6224 2e-5 -2.9705 0.22849-4.0442 0.68541-1.0816 0.45695-1.8928 1.138-2.4336 2.0433-0.28214 0.46557-0.482 1.0389-0.59958 1.72-0.11754 0.67249-0.17633 1.8148-0.17635 3.427v3.4917h14.472m-15.895-2.7287v-1.2932c1.5e-5 -1.5691 0.07447-2.7459 0.22338-3.5305 0.14893-0.78454 0.38798-1.4613 0.71714-2.0304 0.67406-1.1725 1.6694-2.0648 2.9862-2.677 1.3089-0.62072 2.8764-0.9311 4.7026-0.93111 1.9673 1e-5 3.621 0.33625 4.9613 1.0087 1.3402 0.67249 2.3356 1.6683 2.9862 2.9873 0.26648 0.55179 0.4585 1.2286 0.57607 2.0304 0.10973 0.80181 0.16459 2.026 0.16459 3.6727v5.2375h-17.317v-4.4745"/><path d="m21.141 155.25c1.6773 0 2.9783-0.40521 3.9032-1.2156 0.92485-0.81903 1.3873-1.9657 1.3873-3.44 0-1.4915-0.4585-2.6425-1.3755-3.4529s-2.222-1.2156-3.9149-1.2156c-1.6929 1e-5 -2.9979 0.40522-3.9149 1.2156-0.92483 0.81043-1.3873 1.9614-1.3873 3.4529 7e-6 1.4743 0.46244 2.6209 1.3873 3.44 0.92486 0.81042 2.2298 1.2156 3.9149 1.2156m0 1.6424c-2.0927 0-3.7111-0.54746-4.8554-1.6424-1.1521-1.1036-1.7282-2.6554-1.7282-4.6556 1.5e-5 -2.0088 0.57609-3.565 1.7282-4.6685 1.1443-1.1122 2.7628-1.6682 4.8554-1.6682 2.077 1e-5 3.6876 0.55178 4.8319 1.6553 1.1443 1.1036 1.7164 2.664 1.7164 4.6814 0 2.0002-0.56823 3.552-1.7047 4.6556-1.1443 1.0949-2.7589 1.6424-4.8437 1.6424"/><path d="m23.058 132.63v-1.5907c1.4343 0.14657 2.5668 0.72852 3.3976 1.7458 0.82295 1.0173 1.2344 2.3407 1.2344 3.9702 0 1.8622-0.57999 3.3322-1.74 4.4099-1.16 1.0691-2.7393 1.6036-4.7379 1.6036-2.0691 0-3.6955-0.54315-4.879-1.6294-1.1835-1.0949-1.7752-2.5907-1.7752-4.4875 1.5e-5 -1.5432 0.39582-2.8106 1.1874-3.8021 0.78378-1.0001 1.8184-1.5389 3.1037-1.6165v1.526c-0.90916 0.12933-1.6381 0.55177-2.1867 1.2674-0.54863 0.70697-0.82294 1.582-0.82295 2.6252 7e-6 1.3708 0.47027 2.4614 1.4108 3.2718 0.94053 0.8018 2.2181 1.2027 3.8326 1.2027 1.6538 0 2.9626-0.40521 3.9267-1.2156 0.96404-0.81903 1.4461-1.914 1.4461-3.2848 0-1.0691-0.30175-1.9614-0.90525-2.677-0.6035-0.71557-1.4343-1.1553-2.4924-1.3191"/><path d="m14.875 118.77h12.497v1.5389h-1.9986c0.79161 0.52592 1.3794 1.1682 1.7635 1.9269 0.38405 0.75007 0.57607 1.6424 0.57607 2.677-7e-6 1.5519-0.36837 2.7201-1.1051 3.5046-0.74458 0.77593-1.8536 1.1639-3.3271 1.1639h-8.4059v-1.5907h8.065c1.2462 1e-5 2.1319-0.25863 2.657-0.77592 0.52513-0.51729 0.78769-1.3794 0.78769-2.5864 0-1.3191-0.36445-2.358-1.0934-3.1166-0.73674-0.7673-1.7439-1.151-3.0214-1.151h-7.3948v-1.5907"/><path d="m27.372 116.29h-12.497v-1.4872h2.0691c-0.76808-0.46555-1.3559-1.0691-1.7635-1.8105-0.41539-0.75006-0.62309-1.6036-0.6231-2.5606 1.5e-5 -1.0259 0.21555-1.8795 0.64661-2.5606 0.42325-0.68108 1.0267-1.1337 1.8105-1.3579-0.79943-0.45692-1.4069-1.0604-1.8223-1.8105-0.42322-0.75867-0.63484-1.6294-0.63486-2.6123 1.5e-5 -1.4915 0.34096-2.6037 1.0228-3.3365 0.67406-0.74143 1.7008-1.1122 3.0802-1.1122h8.7116v1.6165h-8.594c-1.0502 1.6e-5 -1.8027 0.22417-2.2572 0.67247-0.45457 0.44834-0.68187 1.1855-0.68188 2.2114 7e-6 1.2156 0.34095 2.1899 1.0228 2.9227 0.68188 0.73284 1.5754 1.0992 2.6805 1.0992h7.8298v1.5907h-8.4529c-1.0346 1e-5 -1.8027 0.23711-2.3043 0.71127-0.50161 0.47419-0.75241 1.2027-0.75242 2.1855 1.4e-5 1.207 0.34879 2.1855 1.0463 2.9356 0.69757 0.74145 1.6107 1.1122 2.7393 1.1122h7.724v1.5907"/><path d="m21.4 94.367h0.07053c1.5284 0 2.7471-0.40521 3.6563-1.2156 0.90133-0.81041 1.352-1.8967 1.352-3.2589 0-1.0777-0.26256-1.9786-0.78769-2.7028-0.53296-0.72419-1.2579-1.1639-2.175-1.3191v-1.5907c1.2697 0.17244 2.2886 0.77594 3.0567 1.8105 0.76026 1.0346 1.1404 2.3364 1.1404 3.9055-8e-6 1.8709-0.57607 3.3365-1.7282 4.3969-1.1521 1.0604-2.751 1.5907-4.7967 1.5907-2.0848 0-3.7111-0.53022-4.879-1.5907-1.1678-1.0691-1.7517-2.5519-1.7517-4.4487 1.4e-5 -1.845 0.56041-3.2804 1.6812-4.3064 1.113-1.0346 2.6727-1.5518 4.6791-1.5519h0.48202v10.281m-1.1639-0.02586 0.01176-8.6128c-1.3794 0.06899-2.461 0.48281-3.2448 1.2415-0.79159 0.75008-1.1874 1.7502-1.1874 3.0003 1.4e-5 1.2587 0.39973 2.2847 1.1992 3.0779 0.79946 0.78455 1.8732 1.2156 3.2213 1.2932"/><path d="m27.372 82.375h-12.497v-1.5389h1.9986c-0.76808-0.51728-1.3441-1.1553-1.7282-1.914-0.39187-0.75868-0.58781-1.6381-0.58783-2.6382 1.5e-5 -0.94835 0.15285-1.7803 0.45851-2.4959 0.30568-0.71557 0.74067-1.263 1.305-1.6424 0.29-0.19828 0.6427-0.34053 1.0581-0.42676 0.40757-0.0862 1.0816-0.12932 2.0221-0.12932h7.9709v1.6424h-7.7476c-1.4656 8e-6 -2.4571 0.25003-2.9744 0.75006-0.52511 0.49144-0.78767 1.3622-0.78769 2.6123 1.4e-5 1.2846 0.3723 2.3019 1.1169 3.052 0.73675 0.74145 1.7439 1.1122 3.0214 1.1122h7.3713v1.6165"/><path d="m11.289 67.098h3.5857v-2.5476h1.1756v2.5476h9.1113c0.53297 8e-6 0.88566-0.07325 1.0581-0.21984 0.17243-0.14656 0.25864-0.40952 0.25864-0.78886 0-0.1638-0.01175-0.34916-0.03526-0.55608-0.03132-0.20691-0.09013-0.53021-0.17634-0.96992l1.1521-0.01293c0.09405 0.38798 0.16067 0.74145 0.19986 1.0604 0.04702 0.319 0.07053 0.62075 0.07053 0.90526 0 0.79318-0.18027 1.3536-0.5408 1.6812-0.36837 0.32762-1.0307 0.49143-1.9869 0.49142h-9.1113v1.8752h-1.1756v-1.8752h-3.5857v-1.5907"/><path d="m20.824 54.252c0.14109 0.42246 0.25474 0.96561 0.34094 1.6294 0.08622 0.65524 0.1646 1.7157 0.23513 3.1813 0.24297 1.0173 0.58783 1.7846 1.0346 2.3019 0.44675 0.51729 0.98363 0.77593 1.6106 0.77592 0.71323 8e-6 1.2815-0.27588 1.7047-0.82766 0.42324-0.56039 0.63486-1.3191 0.63486-2.2761 0-1.457-0.34094-2.6166-1.0228-3.4788-0.68972-0.87075-1.6263-1.3061-2.8098-1.3061h-1.7282m4.7379-0.10346c0.71323 0.72421 1.2462 1.5088 1.5989 2.3537 0.3527 0.84492 0.52904 1.7545 0.52904 2.7287 0 1.3881-0.32918 2.4959-0.98754 3.3236-0.65837 0.81904-1.5362 1.2286-2.6335 1.2286-0.71322 0-1.3363-0.18536-1.8693-0.55608-0.53296-0.37934-0.95227-0.9268-1.2579-1.6424-0.33701-0.81903-0.57214-2.1855-0.70539-4.0995-0.02351-0.37072-0.04308-0.65091-0.05877-0.84059-0.02351-0.11207-0.05096-0.26295-0.0823-0.45263-0.24296-1.3104-0.75633-1.9657-1.5401-1.9657-0.97186 1.6e-5 -1.6655 0.26728-2.0809 0.80179-0.42322 0.52592-0.63484 1.3967-0.63485 2.6123 7e-6 1.2329 0.23514 2.1769 0.70539 2.8321 0.46244 0.65524 1.1522 1.0087 2.0692 1.0604l-0.01176 1.5648c-1.2462-0.03446-2.2298-0.53884-2.9509-1.5131-0.7289-0.97422-1.0933-2.289-1.0934-3.9443 1.4e-5 -1.6467 0.32136-2.8968 0.96404-3.7503 0.6427-0.85351 1.5832-1.2803 2.8216-1.2803h6.8188c0.51729 8e-6 0.83864-0.06899 0.96404-0.20691 0.12541-0.13793 0.1881-0.39658 0.1881-0.77593v-0.31038c-0.0078-0.0862-0.0157-0.17672-0.02351-0.27158h1.0816c0.03921 0.19831 0.06659 0.3966 0.08229 0.59488 0.02351 0.1983 0.03526 0.37936 0.03526 0.54315 0 0.65524-0.145 1.1467-0.43499 1.4743-0.28999 0.32763-0.72107 0.49143-1.2932 0.49142h-0.19986"/><path d="m11.289 47.873h3.5857v-2.5476h1.1756v2.5476h9.1113c0.53297 8e-6 0.88566-0.07325 1.0581-0.21984 0.17243-0.14657 0.25864-0.40952 0.25864-0.78886 0-0.1638-0.01175-0.34917-0.03526-0.55608-0.03132-0.20691-0.09013-0.53022-0.17634-0.96992l1.1521-0.01293c0.09405 0.38797 0.16067 0.74145 0.19986 1.0604 0.04702 0.31899 0.07053 0.62075 0.07053 0.90525 0 0.79318-0.18027 1.3536-0.5408 1.6812-0.36837 0.32762-1.0307 0.49142-1.9869 0.49142h-9.1113v1.8752h-1.1757v-1.8752h-3.5857v-1.5907"/><path d="m12.23 43.704h-2.175v-1.5777h2.175v1.5777m15.142 0h-12.497v-1.5777h12.497v1.5777"/><path d="m21.141 38.528c1.6773 0 2.9783-0.40521 3.9032-1.2156 0.92485-0.81903 1.3873-1.9657 1.3873-3.44 0-1.4915-0.4585-2.6425-1.3755-3.4529-0.917-0.81041-2.222-1.2156-3.9149-1.2156-1.6929 1.6e-5 -2.9979 0.40522-3.9149 1.2156-0.92483 0.81042-1.3873 1.9614-1.3873 3.4529 7e-6 1.4743 0.46244 2.6209 1.3873 3.44 0.92486 0.81042 2.2298 1.2156 3.9149 1.2156m0 1.6424c-2.0927 8e-6 -3.7111-0.54746-4.8554-1.6424-1.1521-1.1035-1.7282-2.6554-1.7282-4.6556 1.5e-5 -2.0088 0.57609-3.565 1.7282-4.6685 1.1443-1.1122 2.7628-1.6682 4.8554-1.6682 2.077 1.6e-5 3.6876 0.55178 4.8319 1.6553 1.1443 1.1036 1.7164 2.664 1.7164 4.6815 0 2.0002-0.56823 3.552-1.7047 4.6556-1.1443 1.0949-2.7589 1.6424-4.8437 1.6424"/><path d="m27.372 25.785h-12.497v-1.5389h1.9986c-0.76808-0.51728-1.3441-1.1553-1.7282-1.914-0.39187-0.75868-0.58781-1.6381-0.58783-2.6382 1.5e-5 -0.94835 0.15285-1.7803 0.45851-2.4959 0.30568-0.71557 0.74067-1.263 1.305-1.6424 0.29-0.19828 0.6427-0.34053 1.0581-0.42676 0.40757-0.0862 1.0816-0.12931 2.0221-0.12932h7.9709v1.6424h-7.7476c-1.4656 8e-6 -2.4571 0.25003-2.9744 0.75006-0.52511 0.49144-0.78767 1.3622-0.78769 2.6123 1.4e-5 1.2846 0.3723 2.3019 1.1169 3.052 0.73675 0.74145 1.7439 1.1122 3.0214 1.1122h7.3713v1.6165"/></g></svg>
