<?xml version="1.0" encoding="UTF-8"?>
<svg version="1.1" viewBox="0 0 40 410" xml:space="preserve" xmlns="http://www.w3.org/2000/svg" xmlns:xlink="http://www.w3.org/1999/xlink"><defs><linearGradient id="e"><stop stop-color="#00f" offset="0"/><stop stop-color="#e2e9ee" offset="1"/></linearGradient><linearGradient id="d"><stop stop-color="#c8c8ff" offset="0"/><stop stop-color="#9b9bff" offset="1"/></linearGradient><linearGradient id="a"><stop stop-color="#6a6aff" offset="0"/><stop stop-color="#c8c8e7" offset="1"/></linearGradient><linearGradient id="o" x1="541.57" x2="689.73" y1="1282.4" y2="1297.1" gradientTransform="matrix(.33881 0 0 .3392 -165.97 -346.55)" gradientUnits="userSpaceOnUse" xlink:href="#e"/><linearGradient id="n" x1="610.64" x2="462.48" y1="1359.1" y2="1373.8" gradientTransform="matrix(.33881 0 0 .3392 -88.964 -372.57)" gradientUnits="userSpaceOnUse" xlink:href="#e"/><linearGradient id="m" x1="-1700" x2="-1340" y1="-3107.6" y2="-2747.6" gradientTransform="matrix(.13944 0 0 .12893 254.59 489.12)" gradientUnits="userSpaceOnUse" xlink:href="#d"/><linearGradient id="l" x1="-980" x2="-1340" y1="-3107.6" y2="-2747.6" gradientTransform="matrix(.13944 0 0 .12893 254.59 489.12)" gradientUnits="userSpaceOnUse" xlink:href="#d"/><linearGradient id="k" x1="448.16" x2="448.16" y1="1385" y2="1507.3" gradientTransform="matrix(.33865 0 0 .33862 -84.037 -375.54)" gradientUnits="userSpaceOnUse" xlink:href="#d"/><linearGradient id="j" x1="-1340" x2="-1340" y1="-3644.1" y2="-3107.3" gradientTransform="matrix(.13944 0 0 .12893 254.59 488.95)" gradientUnits="userSpaceOnUse" xlink:href="#e"/><linearGradient id="i" x1="-1700" x2="-1340" y1="-3107.6" y2="-2747.6" gradientTransform="matrix(.13944 0 0 .12893 254.59 447.67)" gradientUnits="userSpaceOnUse" xlink:href="#a"/><linearGradient id="h" x1="-980" x2="-1340" y1="-3107.6" y2="-2747.6" gradientTransform="matrix(.13944 0 0 .12893 254.59 447.67)" gradientUnits="userSpaceOnUse" xlink:href="#a"/><linearGradient id="g" x1="165.66" x2="165.66" y1="568.89" y2="691.23" gradientTransform="matrix(.33865 0 0 .33862 -38.57 -145.62)" gradientUnits="userSpaceOnUse" xlink:href="#a"/><linearGradient id="f" x1="462.14" x2="462.14" y1="568.89" y2="691.23" gradientTransform="matrix(.33865 0 0 .33862 -38.57 -145.62)" gradientUnits="userSpaceOnUse" xlink:href="#a"/></defs><g transform="translate(0 -34.3)"><g transform="matrix(.23623 0 0 .23625 3.1269 393.84)"><g fill-rule="evenodd" stroke-width=".33863"><path d="m17.53 47.014 50.201-46.415 50.201 46.415v41.427l-50.201 46.415-50.201-46.415z" fill="#fff"/><path d="m17.53 47.014v41.427l50.201 46.415v-41.427z" fill="url(#o)"/><path d="m67.731 134.86v-41.427l50.201-46.415v41.427z" fill="url(#n)"/></g><g stroke-linecap="round" stroke-width="1.1938"><path d="m17.53 88.441 50.201 46.415" fill="none" stroke="url(#m)"/><path d="m117.93 88.441-50.201 46.415" fill="none" stroke="url(#l)"/><path d="m67.731 93.429v41.427" fill="#a0b4d1" fill-rule="evenodd" stroke="url(#k)"/></g><path d="m67.731 0.59974-50.201 46.415 50.201 46.415 50.201-46.415z" fill="url(#j)" fill-rule="evenodd" stroke-width=".33863"/><g fill="none" stroke-linecap="round" stroke-width="1.1938"><path d="m17.53 47.014 50.201 46.415" stroke="url(#i)"/><path d="m117.93 47.014-50.201 46.415" stroke="url(#h)"/><path d="m17.53 47.014 50.201-46.415" stroke="#6a6aff"/><path d="m117.93 47.014-50.201-46.415" stroke="#6a6aff"/><path d="m17.53 47.014v41.427" stroke="url(#g)"/><path d="m117.93 47.014v41.427" stroke="url(#f)"/></g></g><g fill="#f60"><path d="m18.414 387.32v-4.0736c1.5e-5 -1.8795-0.27431-3.2287-0.82295-4.0478-0.55647-0.81902-1.4539-1.2286-2.6922-1.2286-1.1756 1e-5 -2.0378 0.36642-2.5864 1.0992-0.55646 0.73283-0.83469 1.8752-0.83472 3.427v4.8237h6.9363m8.9585 1.7458h-17.317v-6.6471c1.5e-5 -2.0778 0.40757-3.6382 1.2227-4.6814s2.03-1.5648 3.6445-1.5648c1.6694 1e-5 2.9117 0.58627 3.7268 1.7588 0.80729 1.1639 1.2109 2.9442 1.2109 5.341v4.0478h7.5124v1.7458"/><path d="m12.23 374.36h-2.175v-1.5777h2.175v1.5777m15.142 0h-12.497v-1.5777h12.497v1.5777"/><path d="m27.372 371.51-6.4073-4.8237-6.0899 4.6168v-1.9916l4.9848-3.6081-4.9848-3.5434v-1.9269l6.0664 4.5004 6.4308-5.0048v2.0045l-5.3022 3.9443 5.3022 3.9314v1.901"/><path d="m27.372 358.58h-17.317v-1.7976h17.317v1.7976"/><path d="m27.372 354.44h-12.497v-1.5389h1.9986c-0.76808-0.51728-1.3441-1.1553-1.7282-1.914-0.39187-0.75868-0.58781-1.6381-0.58783-2.6382 1.5e-5 -0.94835 0.15285-1.7803 0.45851-2.4959 0.30568-0.71557 0.74067-1.263 1.305-1.6424 0.29-0.19828 0.6427-0.34053 1.0581-0.42676 0.40757-0.0862 1.0816-0.12931 2.0221-0.12932h7.9709v1.6424h-7.7476c-1.4656 2e-5 -2.4571 0.25004-2.9744 0.75008-0.52511 0.49142-0.78767 1.3622-0.78769 2.6123 1.4e-5 1.2846 0.3723 2.3019 1.1169 3.052 0.73675 0.74144 1.7439 1.1122 3.0214 1.1122h7.3713v1.6165"/><path d="m23.481 341.84v-1.5907c0.86215-0.0431 1.5636-0.40089 2.1044-1.0734 0.53297-0.68109 0.79945-1.5519 0.79945-2.6123 0-1.1466-0.20378-2.0476-0.61135-2.7028-0.41539-0.66384-0.97578-0.99577-1.6812-0.99578-1.0111 1e-5 -1.7831 1.2199-2.316 3.6598-0.0078 0.0345-0.01175 0.0561-0.01175 0.0646-0.43107 1.9657-0.90524 3.2848-1.4225 3.9572-0.51728 0.66385-1.2383 0.99577-2.1632 0.99577-1.0738 0-1.9437-0.43538-2.6099-1.3062-0.67403-0.87938-1.011-2.0217-1.0111-3.427 1.5e-5 -1.5432 0.35271-2.7718 1.0581-3.6857 0.69757-0.91387 1.6694-1.4182 2.9156-1.5131v1.6165c-0.84646 0.069-1.5048 0.41815-1.9751 1.0475-0.47809 0.62937-0.71714 1.4829-0.71715 2.5606 7e-6 0.93974 0.19595 1.6898 0.58782 2.2502 0.3919 0.5604 0.90919 0.8406 1.5519 0.84059 1.113 1e-5 1.9359-1.2501 2.4689-3.7503 0.07053-0.32761 0.12149-0.57331 0.15284-0.73713 0.3527-1.5691 0.79161-2.6597 1.3167-3.2718 0.52513-0.61212 1.2619-0.91818 2.2102-0.91819 1.0581 1e-5 1.9202 0.48281 2.5864 1.4484 0.6662 0.95699 0.9993 2.22 0.99931 3.7891-7e-6 1.595-0.38405 2.8752-1.1521 3.8408-0.76809 0.96561-1.7948 1.47-3.0802 1.5131"/><path d="m12.23 329.15h-2.175v-1.5777h2.175v1.5777m15.142 0h-12.497v-1.5777h12.497v1.5777"/><path d="m21.141 323.9c1.6538 0 2.9548-0.40952 3.9032-1.2286 0.94052-0.82765 1.4108-1.9614 1.4108-3.4012 0-1.4742-0.46634-2.6209-1.399-3.44-0.93268-0.81903-2.2377-1.2285-3.9149-1.2286-1.6851 2e-5 -2.9901 0.40953-3.9149 1.2286-0.92483 0.81043-1.3873 1.9571-1.3873 3.44 7e-6 1.4829 0.45851 2.6252 1.3755 3.427 0.91702 0.8018 2.2259 1.2027 3.9267 1.2027m-6.2662-10.76h11.851c1.9046 1e-5 3.3428 0.55179 4.3146 1.6553 0.97186 1.0949 1.4578 2.7158 1.4578 4.8625-8e-6 1.6036-0.32919 2.9011-0.98755 3.8926-0.65052 0.98285-1.5401 1.5217-2.6687 1.6165v-1.6295c0.76026-0.0948 1.3442-0.46986 1.7517-1.1251 0.40756-0.66385 0.61134-1.5734 0.61134-2.7287 0-1.6553-0.37229-2.8968-1.1169-3.7245-0.74458-0.83628-1.8497-1.2544-3.3153-1.2544h-1.5401c0.8308 0.56041 1.4539 1.2415 1.8693 2.0433 0.40756 0.79318 0.61134 1.7114 0.61135 2.7546-7e-6 1.8881-0.58391 3.3753-1.7517 4.4616-1.1756 1.0863-2.7824 1.6295-4.8202 1.6295-2.0221 0-3.6249-0.54747-4.8084-1.6424-1.1835-1.1036-1.7752-2.5864-1.7752-4.4487 1.5e-5 -1.0604 0.20772-1.9872 0.6231-2.7804 0.41541-0.79316 1.0346-1.457 1.8575-1.9916h-2.1632v-1.5907"/><path d="m27.372 311.08h-17.317v-1.6165h6.7718c-0.74456-0.50866-1.3089-1.1423-1.6929-1.901-0.38403-0.75868-0.57606-1.6338-0.57607-2.6252 1.5e-5 -0.91387 0.15677-1.7329 0.47026-2.4571 0.31352-0.7242 0.7446-1.276 1.2932-1.6553 0.29784-0.19829 0.66229-0.34054 1.0934-0.42677 0.43108-0.0862 1.2148-0.12931 2.3513-0.12932h7.6065v1.6165h-7.583c-1.5597 2e-5 -2.6021 0.24573-3.1272 0.73714-0.53295 0.49143-0.79943 1.3665-0.79944 2.6252 1.4e-5 1.2846 0.37622 2.3106 1.1286 3.0779 0.74459 0.75869 1.7478 1.138 3.0097 1.138h7.3713v1.6165"/><path d="m11.289 296.31h3.5857v-2.5476h1.1756v2.5476h9.1113c0.53297 0 0.88566-0.0733 1.0581-0.21985 0.17243-0.14656 0.25864-0.40951 0.25864-0.78886 0-0.1638-0.01175-0.34917-0.03526-0.55609-0.03132-0.2069-0.09013-0.53021-0.17634-0.96991l1.1521-0.0129c0.09405 0.38797 0.16067 0.74145 0.19986 1.0604 0.04702 0.319 0.07053 0.62075 0.07053 0.90525 0 0.79318-0.18027 1.3536-0.5408 1.6812-0.36837 0.32762-1.0307 0.49143-1.9869 0.49143h-9.1113v1.8752h-1.1756v-1.8752h-3.5857v-1.5907"/></g><g transform="matrix(0 -1.0488 .95346 0 -.0056069 -1.4304e-5)" fill="#06f" stroke-width=".6315" aria-label="Project Documentation"><path d="m-271.04 19.315h3.8852q2.6888 0 3.8606-0.86339 1.1717-0.87572 1.1717-2.8245 0-1.8501-1.0484-2.7135-1.0484-0.87572-3.2685-0.87572h-4.6006zm-1.6651 9.3986v-18.168h6.3397q2.9725 0 4.4649 1.2827 1.4924 1.2827 1.4924 3.8236 0 2.6272-1.6774 3.9099-1.6651 1.2704-5.094 1.2704h-3.8606v7.8815z"/><path d="m-258.77 28.714v-13.111h1.4678v2.2941q0.56737-1.3197 1.5664-1.9735 1.0114-0.65371 2.4792-0.65371h0.17268v1.5911h-0.19735q-1.9611 0-2.9478 1.1594-0.97439 1.1594-0.97439 3.4659v7.2278z"/><path d="m-251.1 22.177q0 2.6395 1.1594 4.0949 1.1717 1.4554 3.2809 1.4554 2.1338 0 3.2932-1.4431 1.1594-1.4431 1.1594-4.1072t-1.1594-4.1072q-1.1594-1.4554-3.2932-1.4554-2.1091 0-3.2809 1.4554-1.1594 1.4554-1.1594 4.1072zm-1.5664 0q0-3.2932 1.5664-5.094 1.5788-1.8131 4.4403-1.8131 2.8738 0 4.4526 1.8131 1.5911 1.8008 1.5911 5.094 0 3.2685-1.5788 5.0693-1.5788 1.8008-4.4649 1.8008-2.8615 0-4.4403-1.7884-1.5664-1.8008-1.5664-5.0816z"/><path d="m-238.3 12.828v-2.2818h1.5171v2.2818zm-2.0475 21.165 0.0123-1.3074q0.12334 0.01233 0.23435 0.01233 0.12334 0.01233 0.34535 0.01233 0.82639 0 1.1347-0.35769 0.32069-0.34535 0.32069-1.2581v-15.492h1.5171v15.664q0 1.4924-0.62904 2.1585-0.6167 0.66604-1.9981 0.66604-0.19735 0-0.72771-0.074-0.12334-0.01233-0.20968-0.02467z"/><path d="m-233.51 22.448v0.074q0 2.4051 1.1594 3.8359 1.1594 1.4184 3.1082 1.4184 1.5418 0 2.5778-0.82638 1.0361-0.83872 1.2581-2.2818h1.5171q-0.24668 1.9981-1.7268 3.2069-1.4801 1.1964-3.7249 1.1964-2.6765 0-4.1936-1.8131t-1.5171-5.0323q0-3.2809 1.5171-5.1186 1.5294-1.8378 4.2429-1.8378 2.6395 0 4.1072 1.7638 1.4801 1.7514 1.4801 4.909v0.5057zm0.0247-1.2211 8.2145 0.01233q-0.0987-2.1708-1.1841-3.4042-1.0731-1.2457-2.8615-1.2457-1.8008 0-2.9355 1.2581-1.1224 1.2581-1.2334 3.3795z"/><path d="m-212.99 24.187h1.5171q-0.20968 2.2571-1.6651 3.5645-1.4554 1.2951-3.7866 1.2951-2.6642 0-4.2059-1.8254-1.5294-1.8254-1.5294-4.9706 0-3.2562 1.5541-5.1186 1.5664-1.8624 4.2799-1.8624 2.2078 0 3.6262 1.2457 1.4308 1.2334 1.5418 3.2562h-1.4554q-0.18501-1.4308-1.2087-2.2941-1.0114-0.86339-2.5038-0.86339-1.9611 0-3.1205 1.4801-1.1471 1.4801-1.1471 4.0209 0 2.6025 1.1594 4.1196 1.1717 1.5171 3.1329 1.5171 1.5294 0 2.5532-0.94972t1.2581-2.6148z"/><path d="m-207.96 11.841v3.7619h2.4298v1.2334h-2.4298v9.5589q0 0.83872 0.20968 1.1101 0.20968 0.27135 0.75238 0.27135 0.23435 0 0.53036-0.037 0.29602-0.04934 0.92506-0.18501l0.0123 1.2087q-0.55503 0.14801-1.0114 0.20968-0.45636 0.074-0.86339 0.074-1.1347 0-1.6034-0.56737-0.46869-0.5797-0.46869-2.0845v-9.5589h-1.7884v-1.2334h1.7884v-3.7619z"/><path d="m-196.38 27.222h3.5152q2.0598 0 3.0095-0.14801 0.94972-0.16034 1.5788-0.53037 1.3814-0.82638 2.0598-2.5162 0.67838-1.7021 0.67838-4.3786 0-2.5532-0.65371-4.2429-0.6537-1.7021-1.9488-2.5532-0.66604-0.44403-1.6404-0.62904-0.96206-0.18501-3.2685-0.18501h-3.3302zm2.6025-16.676h1.2334q2.2448 0 3.3672 0.23435 1.1224 0.23435 1.9364 0.75238 1.6774 1.0607 2.5532 3.1329 0.88805 2.0598 0.88805 4.9336 0 3.0959-0.96205 5.205-0.96206 2.1091-2.8492 3.1329-0.78938 0.41936-1.9364 0.60437-1.1471 0.17268-3.5029 0.17268h-4.9953v-18.168z"/><path d="m-180.86 22.177q0 2.6395 1.1594 4.0949 1.1717 1.4554 3.2809 1.4554 2.1338 0 3.2932-1.4431 1.1594-1.4431 1.1594-4.1072t-1.1594-4.1072q-1.1594-1.4554-3.2932-1.4554-2.1091 0-3.2809 1.4554-1.1594 1.4554-1.1594 4.1072zm-1.5664 0q0-3.2932 1.5664-5.094 1.5788-1.8131 4.4403-1.8131 2.8738 0 4.4526 1.8131 1.5911 1.8008 1.5911 5.094 0 3.2685-1.5788 5.0693-1.5788 1.8008-4.4649 1.8008-2.8615 0-4.4403-1.7884-1.5664-1.8008-1.5664-5.0816z"/><path d="m-159.65 24.187h1.5171q-0.20968 2.2571-1.6651 3.5645-1.4554 1.2951-3.7866 1.2951-2.6642 0-4.2059-1.8254-1.5294-1.8254-1.5294-4.9706 0-3.2562 1.5541-5.1186 1.5664-1.8624 4.2799-1.8624 2.2078 0 3.6262 1.2457 1.4308 1.2334 1.5418 3.2562h-1.4554q-0.18501-1.4308-1.2087-2.2941-1.0114-0.86339-2.5038-0.86339-1.9611 0-3.1205 1.4801-1.1471 1.4801-1.1471 4.0209 0 2.6025 1.1594 4.1196 1.1717 1.5171 3.1329 1.5171 1.5294 0 2.5532-0.94972t1.2581-2.6148z"/><path d="m-146.36 15.603v13.111h-1.4678v-2.0968q-0.75238 1.2457-1.8378 1.8501-1.0731 0.60437-2.5532 0.60437-2.2201 0-3.3425-1.1594-1.1101-1.1717-1.1101-3.4905v-8.8189h1.5171v8.4612q0 1.9611 0.74004 2.7875 0.74005 0.82638 2.4668 0.82638 1.8871 0 2.9725-1.1471 1.0977-1.1594 1.0977-3.1699v-7.7581z"/><path d="m-143.95 28.714v-13.111h1.4184v2.1708q0.66605-1.2087 1.7268-1.8501 1.0731-0.65371 2.4421-0.65371 1.4678 0 2.4422 0.67838 0.9744 0.66604 1.2951 1.8994 0.65371-1.2581 1.7268-1.9118 1.0854-0.66604 2.4915-0.66604 2.1338 0 3.1822 1.0731 1.0607 1.0607 1.0607 3.2315v9.1396h-1.5418v-9.0162q0-1.6528-0.64137-2.3681t-2.1091-0.71538q-1.7391 0-2.7875 1.0731t-1.0484 2.8122v8.2145h-1.5171v-8.8682q0-1.6281-0.67837-2.4175-0.67838-0.78938-2.0845-0.78938-1.7268 0-2.7998 1.0977-1.0607 1.0977-1.0607 2.8738v8.1035z"/><path d="m-122.99 22.448v0.074q0 2.4051 1.1594 3.8359 1.1594 1.4184 3.1082 1.4184 1.5418 0 2.5778-0.82638 1.0361-0.83872 1.2581-2.2818h1.5171q-0.24668 1.9981-1.7268 3.2069-1.4801 1.1964-3.7249 1.1964-2.6765 0-4.1936-1.8131-1.5171-1.8131-1.5171-5.0323 0-3.2809 1.5171-5.1186 1.5294-1.8378 4.2429-1.8378 2.6395 0 4.1072 1.7638 1.4801 1.7514 1.4801 4.909v0.5057zm0.0247-1.2211 8.2145 0.01233q-0.0987-2.1708-1.1841-3.4042-1.0731-1.2457-2.8615-1.2457-1.8008 0-2.9355 1.2581-1.1224 1.2581-1.2334 3.3795z"/><path d="m-111.49 28.714v-13.111h1.4678v2.0968q0.74004-1.2087 1.8254-1.8131 1.0854-0.6167 2.5162-0.6167 1.3568 0 2.3805 0.48103t1.5664 1.3691q0.28368 0.45636 0.40702 1.1101 0.12335 0.64137 0.12335 2.1215v8.3625h-1.5664v-8.1282q0-2.3065-0.71538-3.1205-0.70304-0.82638-2.4915-0.82638-1.8378 0-2.9108 1.1717-1.0607 1.1594-1.0607 3.1699v7.7335z"/><path d="m-96.866 11.841v3.7619h2.4298v1.2334h-2.4298v9.5589q0 0.83872 0.20968 1.1101 0.20968 0.27135 0.75238 0.27135 0.23435 0 0.53036-0.037 0.29602-0.04934 0.92506-0.18501l0.01233 1.2087q-0.55503 0.14801-1.0114 0.20968-0.45636 0.074-0.86339 0.074-1.1347 0-1.6034-0.56737-0.4687-0.5797-0.4687-2.0845v-9.5589h-1.7884v-1.2334h1.7884v-3.7619z"/><path d="m-84.575 21.844q-0.60437 0.22201-1.5541 0.35769-0.93739 0.13568-3.0342 0.24668-1.4554 0.38236-2.1955 1.0854t-0.74004 1.6898q0 1.1224 0.78938 1.7884 0.80172 0.66604 2.1708 0.66604 2.0845 0 3.3179-1.0731 1.2457-1.0854 1.2457-2.9478zm0.09867 4.9706q-1.0361 1.1224-2.2448 1.6774-1.2087 0.55503-2.6025 0.55503-1.9858 0-3.1699-1.0361-1.1717-1.0361-1.1717-2.7628 0-1.1224 0.53037-1.9611 0.5427-0.83872 1.5664-1.3197 1.1717-0.53037 3.9099-0.74004 0.53037-0.037 0.80172-0.06167 0.16034-0.037 0.43169-0.08634 1.8748-0.38236 1.8748-1.6158 0-1.5294-0.76471-2.1831-0.75238-0.66604-2.4915-0.66604-1.7638 0-2.7012 0.74004-0.93739 0.72771-1.0114 2.1708l-1.4924-0.01233q0.04934-1.9611 1.4431-3.0959 1.3938-1.1471 3.7619-1.1471 2.3558 0 3.5769 1.0114t1.2211 2.9602v7.1538q0 0.81405 0.19735 1.0114 0.19734 0.19734 0.74004 0.19734 0.17268 0 0.29602 0 0.12334-0.01233 0.25902-0.02467v1.1347q-0.28368 0.06167-0.56737 0.08634-0.28368 0.037-0.51803 0.037-0.93739 0-1.4061-0.45636-0.4687-0.45636-0.4687-1.3567z"/><path d="m-78.463 11.841v3.7619h2.4298v1.2334h-2.4298v9.5589q0 0.83872 0.20968 1.1101 0.20968 0.27135 0.75238 0.27135 0.23435 0 0.53037-0.037 0.29602-0.04934 0.92506-0.18501l0.01233 1.2087q-0.55503 0.14801-1.0114 0.20968-0.45636 0.074-0.86339 0.074-1.1347 0-1.6034-0.56737-0.4687-0.5797-0.4687-2.0845v-9.5589h-1.7884v-1.2334h1.7884v-3.7619z"/><path d="m-74.449 12.828v-2.2818h1.5048v2.2818zm0 15.886v-13.111h1.5048v13.111z"/><path d="m-69.484 22.177q0 2.6395 1.1594 4.0949 1.1717 1.4554 3.2809 1.4554 2.1338 0 3.2932-1.4431 1.1594-1.4431 1.1594-4.1072t-1.1594-4.1072q-1.1594-1.4554-3.2932-1.4554-2.1091 0-3.2809 1.4554-1.1594 1.4554-1.1594 4.1072zm-1.5664 0q0-3.2932 1.5664-5.094 1.5788-1.8131 4.4403-1.8131 2.8738 0 4.4526 1.8131 1.5911 1.8008 1.5911 5.094 0 3.2685-1.5788 5.0693-1.5788 1.8008-4.4649 1.8008-2.8615 0-4.4403-1.7884-1.5664-1.8008-1.5664-5.0816z"/><path d="m-57.292 28.714v-13.111h1.4678v2.0968q0.74004-1.2087 1.8254-1.8131 1.0854-0.6167 2.5162-0.6167 1.3568 0 2.3805 0.48103 1.0237 0.48103 1.5664 1.3691 0.28368 0.45636 0.40702 1.1101 0.12334 0.64137 0.12334 2.1215v8.3625h-1.5664v-8.1282q0-2.3065-0.71538-3.1205-0.70304-0.82638-2.4915-0.82638-1.8378 0-2.9108 1.1717-1.0607 1.1594-1.0607 3.1699v7.7335z"/></g></g></svg>
