<?xml version="1.0" encoding="UTF-8"?>
<svg version="1.1" viewBox="0 0 40 530" xml:space="preserve" xmlns="http://www.w3.org/2000/svg" xmlns:xlink="http://www.w3.org/1999/xlink"><defs><linearGradient id="e"><stop stop-color="#00f" offset="0"/><stop stop-color="#e2e9ee" offset="1"/></linearGradient><linearGradient id="d"><stop stop-color="#c8c8ff" offset="0"/><stop stop-color="#9b9bff" offset="1"/></linearGradient><linearGradient id="a"><stop stop-color="#6a6aff" offset="0"/><stop stop-color="#c8c8e7" offset="1"/></linearGradient><linearGradient id="o" x1="541.57" x2="689.73" y1="1282.4" y2="1297.1" gradientTransform="matrix(.33881 0 0 .3392 -165.97 -346.55)" gradientUnits="userSpaceOnUse" xlink:href="#e"/><linearGradient id="n" x1="610.64" x2="462.48" y1="1359.1" y2="1373.8" gradientTransform="matrix(.33881 0 0 .3392 -88.964 -372.57)" gradientUnits="userSpaceOnUse" xlink:href="#e"/><linearGradient id="m" x1="-1700" x2="-1340" y1="-3107.6" y2="-2747.6" gradientTransform="matrix(.13944 0 0 .12893 254.59 489.12)" gradientUnits="userSpaceOnUse" xlink:href="#d"/><linearGradient id="l" x1="-980" x2="-1340" y1="-3107.6" y2="-2747.6" gradientTransform="matrix(.13944 0 0 .12893 254.59 489.12)" gradientUnits="userSpaceOnUse" xlink:href="#d"/><linearGradient id="k" x1="448.16" x2="448.16" y1="1385" y2="1507.3" gradientTransform="matrix(.33865 0 0 .33862 -84.037 -375.54)" gradientUnits="userSpaceOnUse" xlink:href="#d"/><linearGradient id="j" x1="-1340" x2="-1340" y1="-3644.1" y2="-3107.3" gradientTransform="matrix(.13944 0 0 .12893 254.59 488.95)" gradientUnits="userSpaceOnUse" xlink:href="#e"/><linearGradient id="i" x1="-1700" x2="-1340" y1="-3107.6" y2="-2747.6" gradientTransform="matrix(.13944 0 0 .12893 254.59 447.67)" gradientUnits="userSpaceOnUse" xlink:href="#a"/><linearGradient id="h" x1="-980" x2="-1340" y1="-3107.6" y2="-2747.6" gradientTransform="matrix(.13944 0 0 .12893 254.59 447.67)" gradientUnits="userSpaceOnUse" xlink:href="#a"/><linearGradient id="g" x1="165.66" x2="165.66" y1="568.89" y2="691.23" gradientTransform="matrix(.33865 0 0 .33862 -38.57 -145.62)" gradientUnits="userSpaceOnUse" xlink:href="#a"/><linearGradient id="f" x1="462.14" x2="462.14" y1="568.89" y2="691.23" gradientTransform="matrix(.33865 0 0 .33862 -38.57 -145.62)" gradientUnits="userSpaceOnUse" xlink:href="#a"/></defs>
   <g transform="matrix(.23623 0 0 .23625 3.1278 488.51)"><g fill-rule="evenodd" stroke-width=".33863"><path d="m17.53 47.014 50.201-46.415 50.201 46.415v41.427l-50.201 46.415-50.201-46.415z" fill="#fff"/><path d="m17.53 47.014v41.427l50.201 46.415v-41.427z" fill="url(#o)"/><path d="m67.731 134.86v-41.427l50.201-46.415v41.427z" fill="url(#n)"/></g><g stroke-linecap="round" stroke-width="1.1938"><path d="m17.53 88.441 50.201 46.415" fill="none" stroke="url(#m)"/><path d="m117.93 88.441-50.201 46.415" fill="none" stroke="url(#l)"/><path d="m67.731 93.429v41.427" fill="#a0b4d1" fill-rule="evenodd" stroke="url(#k)"/></g><path d="m67.731 0.59974-50.201 46.415 50.201 46.415 50.201-46.415z" fill="url(#j)" fill-rule="evenodd" stroke-width=".33863"/><g fill="none" stroke-linecap="round" stroke-width="1.1938"><path d="m17.53 47.014 50.201 46.415" stroke="url(#i)"/><path d="m117.93 47.014-50.201 46.415" stroke="url(#h)"/><path d="m17.53 47.014 50.201-46.415" stroke="#6a6aff"/><path d="m117.93 47.014-50.201-46.415" stroke="#6a6aff"/><path d="m17.53 47.014v41.427" stroke="url(#g)"/><path d="m117.93 47.014v41.427" stroke="url(#f)"/></g></g><g transform="matrix(0 -.80315 .73013 0 129.5 316.56)"><g fill="#f60"><path d="m-206-152.15h5.0721c2.3401 2e-5 4.0201-0.3757 5.0399-1.1271 1.0198-0.76215 1.5297-1.9913 1.5297-3.6874-1e-5 -1.6102-0.45623-2.791-1.3687-3.5424-0.91246-0.76214-2.3348-1.1432-4.267-1.1432h-6.006v9.5002m-2.1738 12.27v-23.718h8.2764c2.587 2e-5 4.53 0.55822 5.8289 1.6746 1.2989 1.1164 1.9483 2.7803 1.9483 4.9916-2e-5 2.2865-0.72998 3.9879-2.1899 5.1043-1.4492 1.1057-3.6659 1.6585-6.6501 1.6585h-5.0399v10.289h-2.1738"/><path d="m-189.86-160.62v-2.9789h1.9644v2.9789h-1.9644m0 20.739v-17.116h1.9644v17.116h-1.9644"/><path d="m-186.31-139.88 6.006-8.7756-5.7484-8.3408h2.4797l4.4924 6.8272 4.4119-6.8272h2.3992l-5.6035 8.3086 6.2314 8.8078h-2.4958l-4.9111-7.262-4.895 7.262h-2.367"/><path d="m-170.22-139.88v-23.718h2.2382v23.718h-2.2382"/><path d="m-165.06-139.88v-17.116h1.9161v2.7373c0.64407-1.052 1.4384-1.841 2.3831-2.367 0.94464-0.53671 2.0396-0.80508 3.2848-0.8051 1.1808 2e-5 2.2167 0.20935 3.1077 0.62798 0.89096 0.41867 1.5726 1.0144 2.045 1.7873 0.24688 0.39719 0.424 0.88025 0.53137 1.4492 0.10733 0.55822 0.161 1.4814 0.16102 2.7695v10.917h-2.045v-10.611c-2e-5 -2.0074-0.31132-3.3653-0.93392-4.0738-0.61188-0.7192-1.6961-1.0788-3.2526-1.0788-1.5995 2e-5 -2.8662 0.50991-3.8001 1.5297-0.92318 1.0091-1.3848 2.3885-1.3848 4.1382v10.096h-2.0127"/><path d="m-149.37-145.21h1.9805c0.0537 1.1808 0.49915 2.1416 1.3365 2.8822 0.84803 0.72996 1.9322 1.0949 3.2526 1.0949 1.4277 0 2.5495-0.2791 3.3653-0.83731 0.82655-0.56893 1.2398-1.3364 1.2398-2.3026-1e-5 -1.3848-1.519-2.4421-4.5568-3.1721-0.043-0.0107-0.0698-0.0161-0.0805-0.0161-2.4475-0.5904-4.0899-1.2398-4.9272-1.9483-0.82657-0.70847-1.2398-1.6961-1.2398-2.9628 0-1.4706 0.5421-2.6622 1.6263-3.5746 1.0949-0.92316 2.5173-1.3848 4.267-1.3848 1.9215 2e-5 3.4512 0.48308 4.5891 1.4492 1.1379 0.9554 1.7658 2.2865 1.8839 3.9933h-2.0128c-0.0859-1.1593-0.52064-2.061-1.3042-2.7051-0.78364-0.6548-1.8464-0.98221-3.1882-0.98222-1.1701 1e-5 -2.104 0.26838-2.8017 0.80509-0.69775 0.53675-1.0466 1.2452-1.0466 2.1255-1e-5 1.5243 1.5565 2.6515 4.6696 3.3814 0.40791 0.0966 0.71384 0.1664 0.91781 0.20933 1.9537 0.48306 3.3116 1.0842 4.0738 1.8034 0.76215 0.71923 1.1432 1.7283 1.1432 3.0272-1e-5 1.4492-0.60115 2.63-1.8034 3.5424-1.1916 0.91244-2.7642 1.3687-4.7179 1.3687-1.9859-1e-5 -3.58-0.526-4.7823-1.578s-1.8302-2.4582-1.8839-4.2187"/><path d="m-133.57-160.62v-2.9789h1.9644v2.9789h-1.9644m0 20.739v-17.116h1.9644v17.116h-1.9644"/><path d="m-127.03-148.41c-1e-5 2.265 0.50989 4.047 1.5297 5.3458 1.0305 1.2882 2.4421 1.9322 4.2348 1.9322 1.8356 0 3.2633-0.63871 4.2831-1.9161 1.0198-1.2774 1.5297-3.0647 1.5297-5.3619-2e-5 -2.3079-0.50991-4.0952-1.5297-5.362-1.0091-1.2667-2.4368-1.9-4.2831-1.9-1.8464 1e-5 -3.2687 0.62799-4.267 1.8839-0.99833 1.256-1.4975 3.0486-1.4975 5.3781m13.397-8.5823v16.231c-2e-5 2.6085-0.68704 4.5783-2.061 5.9094-1.3633 1.3311-3.3814 1.9966-6.0543 1.9966-1.9966-1e-5 -3.6122-0.45086-4.8467-1.3526-1.2238-0.89097-1.8947-2.1094-2.0128-3.6551h2.0288c0.11808 1.0413 0.58503 1.841 1.4009 2.3992 0.82656 0.5582 1.9591 0.8373 3.3975 0.8373 2.061 0 3.6068-0.5099 4.6374-1.5297 1.0412-1.0198 1.5619-2.5334 1.5619-4.5408v-2.1094c-0.69776 1.1379-1.5458 1.9913-2.5441 2.5602-0.98759 0.5582-2.1308 0.8373-3.4297 0.83731-2.3509-1e-5 -4.2026-0.79973-5.5552-2.3992-1.3526-1.6102-2.0288-3.8108-2.0288-6.6018 0-2.7695 0.68165-4.9648 2.045-6.5857 1.374-1.6209 3.2204-2.4314 5.5391-2.4314 1.3204 2e-5 2.4743 0.28449 3.4619 0.85341 0.98757 0.56895 1.8141 1.417 2.4797 2.5441v-2.9628h1.9805"/><path d="m-111.07-139.88v-23.718h2.0127v9.2747c0.63334-1.0198 1.4223-1.7927 2.367-2.3187 0.94464-0.52598 2.0342-0.78898 3.2687-0.789 1.1379 2e-5 2.1576 0.21471 3.0594 0.64408 0.9017 0.4294 1.5887 1.0198 2.0611 1.7712 0.24688 0.40793 0.424 0.90709 0.53136 1.4975 0.10733 0.59042 0.161 1.6639 0.16102 3.2204v10.418h-2.0127v-10.386c-1.4e-5 -2.1362-0.30595-3.5639-0.91781-4.2831-0.61188-0.72994-1.7014-1.0949-3.2687-1.0949-1.5995 2e-5 -2.8769 0.51528-3.8323 1.5458-0.94465 1.0198-1.417 2.3938-1.417 4.1221v10.096h-2.0127"/><path d="m-92.681-161.91v4.9111h3.1721v1.6102h-3.1721v12.479c-5e-6 0.72996 0.09124 1.213 0.27373 1.4492 0.18248 0.23616 0.50989 0.35424 0.98222 0.35424 0.20395 0 0.43475-0.0161 0.69238-0.0483 0.25762-0.0429 0.66017-0.12344 1.2076-0.24152l0.0161 1.578c-0.48307 0.12881-0.92319 0.22006-1.3204 0.27373-0.39719 0.0644-0.7729 0.0966-1.1271 0.0966-0.98759 0-1.6853-0.2469-2.0933-0.74069-0.40792-0.50453-0.61188-1.4116-0.61187-2.7212v-12.479h-2.3348v-1.6102h2.3348v-4.9111h1.9805"/></g><g fill="#06f"><path d="m-81.786-147.17h2.1738v1.5297c-3e-6 1.5136 0.3274 2.6407 0.98222 3.3814 0.65481 0.72996 1.6585 1.0949 3.0111 1.0949 1.535 0 2.63-0.38107 3.2848-1.1432 0.66554-0.76215 0.99831-2.0396 0.99832-3.8323v-17.455h2.1738v17.954c-1.3e-5 2.0718-0.55821 3.6605-1.6746 4.7662-1.1164 1.1057-2.732 1.6585-4.8467 1.6585-2.0181 0-3.5424-0.52063-4.573-1.5619-1.0198-1.052-1.5297-2.6085-1.5297-4.6696v-1.7229"/><path d="m-54.81-148.85c-0.52601 0.19324-1.2023 0.34889-2.0288 0.46696-0.81584 0.11809-2.1362 0.22544-3.9611 0.32204-1.2667 0.33278-2.2221 0.8051-2.8661 1.417-0.64408 0.61188-0.96612 1.3472-0.96612 2.206-3e-6 0.97685 0.3435 1.7551 1.0305 2.3348 0.69775 0.57967 1.6424 0.86951 2.8339 0.86951 1.8141 0 3.258-0.46696 4.3314-1.4009 1.0842-0.94465 1.6263-2.2274 1.6263-3.8484v-2.367m0.12882 6.4891c-0.90172 0.97685-1.8786 1.7068-2.9306 2.1899-1.052 0.48306-2.1845 0.72459-3.3975 0.72459-1.7283 0-3.1077-0.45085-4.1382-1.3526-1.0198-0.90171-1.5297-2.104-1.5297-3.6068-2e-6 -0.97684 0.23079-1.8302 0.69238-2.5602 0.47232-0.72995 1.154-1.3042 2.0449-1.7229 1.0198-0.46158 2.7212-0.78362 5.1043-0.96611 0.46158-0.0322 0.81046-0.059 1.0466-0.0805 0.13954-0.0322 0.3274-0.0698 0.56357-0.11272 1.6317-0.33276 2.4475-1.0359 2.4475-2.1094-1.3e-5 -1.3311-0.33279-2.2811-0.99832-2.85-0.65482-0.57965-1.739-0.86949-3.2526-0.8695-1.5351 1e-5 -2.7105 0.32205-3.5263 0.96611-0.81584 0.63336-1.256 1.578-1.3204 2.834l-1.9483-0.0161c0.04294-1.7068 0.67091-3.054 1.8839-4.0416 1.213-0.99831 2.85-1.4975 4.9111-1.4975 2.0503 2e-5 3.6068 0.44014 4.6696 1.3204 1.0627 0.88026 1.5941 2.1684 1.5941 3.8645v9.3391c-1.6e-5 0.70849 0.08586 1.1486 0.25763 1.3204 0.17174 0.17176 0.49378 0.25763 0.96612 0.25763h0.38645c0.10733-0.0107 0.22004-0.0215 0.33814-0.0322v1.4814c-0.24691 0.0537-0.49381 0.0912-0.74069 0.11271-0.24691 0.0322-0.47234 0.0483-0.67628 0.0483-0.81585 0-1.4277-0.19859-1.8356-0.59577-0.40793-0.39718-0.61189-0.98759-0.61187-1.7712v-0.27373"/><path d="m-45.144-139.88-6.4408-17.116h2.1416l5.4747 14.701 5.378-14.701h2.0449l-6.3925 17.116h-2.206"/><path d="m-24.56-148.85c-0.52601 0.19324-1.2023 0.34889-2.0288 0.46696-0.81584 0.11809-2.1362 0.22544-3.9611 0.32204-1.2667 0.33278-2.2221 0.8051-2.8661 1.417-0.64408 0.61188-0.96612 1.3472-0.96612 2.206-4e-6 0.97685 0.3435 1.7551 1.0305 2.3348 0.69774 0.57967 1.6424 0.86951 2.8339 0.86951 1.8141 0 3.258-0.46696 4.3314-1.4009 1.0842-0.94465 1.6263-2.2274 1.6263-3.8484v-2.367m0.12882 6.4891c-0.90172 0.97685-1.8786 1.7068-2.9306 2.1899-1.052 0.48306-2.1845 0.72459-3.3975 0.72459-1.7283 0-3.1077-0.45085-4.1382-1.3526-1.0198-0.90171-1.5297-2.104-1.5297-3.6068-1e-6 -0.97684 0.23079-1.8302 0.69238-2.5602 0.47232-0.72995 1.154-1.3042 2.0449-1.7229 1.0198-0.46158 2.7212-0.78362 5.1043-0.96611 0.46158-0.0322 0.81046-0.059 1.0466-0.0805 0.13954-0.0322 0.3274-0.0698 0.56357-0.11272 1.6317-0.33276 2.4475-1.0359 2.4475-2.1094-1.4e-5 -1.3311-0.33279-2.2811-0.99832-2.85-0.65482-0.57965-1.739-0.86949-3.2526-0.8695-1.5351 1e-5 -2.7105 0.32205-3.5263 0.96611-0.81584 0.63336-1.256 1.578-1.3204 2.834l-1.9483-0.0161c0.04294-1.7068 0.67091-3.054 1.8839-4.0416 1.213-0.99831 2.85-1.4975 4.9111-1.4975 2.0503 2e-5 3.6068 0.44014 4.6696 1.3204 1.0627 0.88026 1.5941 2.1684 1.5941 3.8645v9.3391c-1.5e-5 0.70849 0.08586 1.1486 0.25763 1.3204 0.17174 0.17176 0.49378 0.25763 0.96612 0.25763h0.38645c0.10733-0.0107 0.22004-0.0215 0.33814-0.0322v1.4814c-0.24691 0.0537-0.49381 0.0912-0.74069 0.11271-0.24691 0.0322-0.47234 0.0483-0.67628 0.0483-0.81585 0-1.4277-0.19859-1.8356-0.59577-0.40793-0.39718-0.61189-0.98759-0.61187-1.7712v-0.27373"/><path d="m-19.918-147.06h2.1738c0.02147 1.8678 0.61187 3.317 1.7712 4.3475 1.1593 1.0305 2.791 1.5458 4.895 1.5458 1.8463 0 3.2955-0.41328 4.3475-1.2398 1.0627-0.8373 1.5941-1.9859 1.5941-3.4458-1.63e-5 -1.3526-0.37036-2.3831-1.111-3.0916-0.7407-0.70847-2.2167-1.3472-4.428-1.9161l-2.2543-0.56357c-2.426-0.6226-4.106-1.4116-5.0399-2.367-0.92318-0.9661-1.3848-2.3187-1.3848-4.0577-2e-6 -1.9215 0.70312-3.4619 2.1094-4.6213 1.4062-1.1593 3.2848-1.739 5.6357-1.739 2.4904 3e-5 4.4334 0.63337 5.8289 1.9 1.4062 1.2667 2.1254 3.0379 2.1577 5.3136h-2.206c-0.032219-1.6853-0.55822-2.9842-1.578-3.8967-1.0198-0.92316-2.4529-1.3848-4.2992-1.3848-1.739 2e-5 -3.0862 0.39183-4.0416 1.1754-0.95539 0.78365-1.4331 1.8893-1.4331 3.317-4e-6 1.0842 0.3113 1.943 0.93391 2.5763 0.6226 0.62263 1.6531 1.1164 3.0916 1.4814l2.7695 0.69239c2.7373 0.68703 4.6588 1.5565 5.7645 2.6085 1.1056 1.052 1.6585 2.5012 1.6585 4.3475-1.84e-5 2.1255-0.72997 3.8001-2.1899 5.0238-1.4492 1.2237-3.4351 1.8356-5.9577 1.8356-2.8232 0-4.997-0.66018-6.5213-1.9805-1.5243-1.3311-2.2865-3.2311-2.2865-5.7001v-0.16102"/><path d="m11.148-145.79h1.9805c-0.1825 1.9644-0.90709 3.5156-2.1738 4.6535-1.2667 1.1271-2.9145 1.6907-4.9433 1.6907-2.3187 0-4.1489-0.79436-5.4908-2.3831-1.3311-1.5887-1.9966-3.7518-1.9966-6.4891-1.3e-6 -2.8339 0.67628-5.0614 2.0288-6.6823 1.3633-1.6209 3.2258-2.4314 5.5874-2.4314 1.9215 2e-5 3.4995 0.54212 4.734 1.6263 1.2452 1.0735 1.9161 2.4904 2.0127 4.2509h-1.9c-0.16103-1.2452-0.68703-2.2435-1.578-2.995-0.88025-0.75141-1.9698-1.1271-3.2687-1.1271-1.7068 1e-5 -3.0647 0.64409-4.0738 1.9322-0.99832 1.2882-1.4975 3.0379-1.4975 5.2492-3.4e-6 2.265 0.50452 4.0577 1.5136 5.378 1.0198 1.3204 2.3831 1.9805 4.0899 1.9805 1.3311 0 2.4421-0.41328 3.3331-1.2398 0.89096-0.82657 1.4384-1.9644 1.6424-3.4136"/><path d="m15.018-139.88v-17.116h1.9161v2.995c0.49379-1.1486 1.1754-2.0074 2.0449-2.5763 0.88023-0.56892 1.9591-0.85339 3.2365-0.85341h0.22543v2.0772h-0.25763c-1.7068 1e-5 -2.9896 0.50454-3.8484 1.5136-0.84804 1.0091-1.2721 2.5173-1.2721 4.5246v9.4357h-2.0449"/><path d="m23.975-160.62v-2.9789h1.9644v2.9789h-1.9644m0 20.739v-17.116h1.9644v17.116h-1.9644"/><path d="m31.21-148.41c-4e-6 2.265 0.50989 4.0416 1.5297 5.3297 1.0198 1.2774 2.4314 1.9161 4.2348 1.9161 1.8678 0 3.3009-0.62797 4.2992-1.8839 1.009-1.2559 1.5136-3.0433 1.5136-5.3619-1.6e-5 -2.3187-0.50454-4.106-1.5136-5.362-1.0091-1.2667-2.4421-1.9-4.2992-1.9-1.8464 1e-5 -3.2687 0.62799-4.267 1.8839-0.99833 1.256-1.4975 3.0486-1.4975 5.3781m-1.9161 15.426v-24.008h2.0127v3.0755c0.64407-1.1915 1.4545-2.0718 2.4314-2.6407 0.97684-0.57965 2.1577-0.86949 3.5424-0.86951 2.3509 2e-5 4.2026 0.80512 5.5552 2.4153 1.3525 1.5995 2.0288 3.8001 2.0288 6.6018-1.8e-5 2.8017-0.68703 5.0023-2.061 6.6018-1.3633 1.5995-3.2365 2.3992-5.6196 2.3992-1.3204-1e-5 -2.4636-0.28447-3.4297-0.85341-0.96612-0.56893-1.782-1.4277-2.4475-2.5763v9.8544h-2.0127"/><path d="m49.604-161.91v4.9111h3.1721v1.6102h-3.1721v12.479c-4e-6 0.72996 0.09124 1.213 0.27373 1.4492 0.18248 0.23616 0.50989 0.35424 0.98222 0.35424 0.20395 0 0.43475-0.0161 0.69238-0.0483 0.25762-0.0429 0.66017-0.12344 1.2076-0.24152l0.0161 1.578c-0.48307 0.12881-0.92318 0.22006-1.3204 0.27373-0.39719 0.0644-0.7729 0.0966-1.1271 0.0966-0.98759 0-1.6853-0.2469-2.0933-0.74069-0.40792-0.50453-0.61188-1.4116-0.61187-2.7212v-12.479h-2.3348v-1.6102h2.3348v-4.9111h1.9805"/><path d="m64.589-152.44h6.2959c2.2113 1e-5 3.8-0.3757 4.7662-1.1271 0.97684-0.75141 1.4653-1.9698 1.4653-3.6551-1.8e-5 -0.77288-0.15567-1.4706-0.46696-2.0932-0.30059-0.62259-0.73534-1.1218-1.3043-1.4975-0.44014-0.30055-0.96613-0.51525-1.578-0.64408-0.61189-0.1288-1.6156-0.1932-3.0111-0.19323h-6.167v9.2103m-2.1738 12.56v-23.718h7.9061c1.8356 2e-5 3.1613 0.0752 3.9772 0.22543 0.82655 0.1503 1.5458 0.3972 2.1577 0.74068 0.9339 0.52602 1.6531 1.256 2.1577 2.1899 0.50451 0.9232 0.75677 1.9752 0.75679 3.156-1.9e-5 1.4599-0.32742 2.689-0.98222 3.6874-0.65483 0.99833-1.6048 1.7122-2.85 2.1416 0.9661 0.32205 1.6585 0.81584 2.0772 1.4814 0.41863 0.66555 0.71383 2.0074 0.88561 4.0255l0.30594 3.5585c0.04292 0.55821 0.1288 1.0198 0.25763 1.3848 0.1288 0.36498 0.29518 0.63335 0.49916 0.8051v0.32204h-2.4153c-0.12883-0.2469-0.23618-0.56894-0.32204-0.96612-0.08589-0.39718-0.1503-0.8856-0.19322-1.4653l-0.27373-3.1399c-0.16104-2.1684-0.54748-3.5478-1.1593-4.1382-0.61189-0.60113-1.841-0.90169-3.6873-0.90171h-6.9238v10.611h-2.1738"/><path d="m95.333-157v17.116h-1.9161v-2.7373c-0.65482 1.0842-1.4546 1.8893-2.3992 2.4153-0.93392 0.526-2.045 0.78899-3.3331 0.789-1.9322-1e-5 -3.3868-0.50453-4.3636-1.5136-0.96612-1.0198-1.4492-2.5387-1.4492-4.5568v-11.513h1.9805v11.046c-4e-6 1.7068 0.32203 2.9198 0.96612 3.639 0.64407 0.71923 1.7175 1.0788 3.2204 1.0788 1.6424 0 2.9359-0.49916 3.8806-1.4975 0.95537-1.009 1.4331-2.3884 1.4331-4.1382v-10.128h1.9805"/><path d="m98.413-139.88v-17.116h1.9161v2.7373c0.64408-1.052 1.4384-1.841 2.3831-2.367 0.94464-0.53671 2.0396-0.80508 3.2848-0.8051 1.1808 2e-5 2.2167 0.20935 3.1077 0.62798 0.89096 0.41867 1.5726 1.0144 2.0449 1.7873 0.24688 0.39719 0.42401 0.88025 0.53137 1.4492 0.10733 0.55822 0.161 1.4814 0.16102 2.7695v10.917h-2.045v-10.611c-1e-5 -2.0074-0.31132-3.3653-0.93391-4.0738-0.61189-0.7192-1.6961-1.0788-3.2526-1.0788-1.5995 2e-5 -2.8662 0.50991-3.8001 1.5297-0.92318 1.0091-1.3848 2.3885-1.3848 4.1382v10.096h-2.0127"/><path d="m117.43-161.91v4.9111h3.1721v1.6102h-3.1721v12.479c0 0.72996 0.0912 1.213 0.27373 1.4492 0.18249 0.23616 0.50989 0.35424 0.98222 0.35424 0.20396 0 0.43475-0.0161 0.69239-0.0483 0.25762-0.0429 0.66017-0.12344 1.2076-0.24152l0.0161 1.578c-0.48307 0.12881-0.92319 0.22006-1.3204 0.27373-0.39719 0.0644-0.7729 0.0966-1.1271 0.0966-0.98759 0-1.6853-0.2469-2.0932-0.74069-0.40792-0.50453-0.61188-1.4116-0.61188-2.7212v-12.479h-2.3348v-1.6102h2.3348v-4.9111h1.9805"/><path d="m122.62-160.62v-2.9789h1.9644v2.9789h-1.9644m0 20.739v-17.116h1.9644v17.116h-1.9644"/><path d="m127.88-139.88v-17.116h1.8517v2.8339c0.57966-1.052 1.3311-1.8571 2.2543-2.4153 0.9339-0.56892 1.9966-0.85339 3.1882-0.85341 1.2774 2e-5 2.3401 0.29522 3.1882 0.88561 0.84802 0.57969 1.4116 1.4062 1.6907 2.4797 0.56893-1.0949 1.3204-1.9268 2.2543-2.4958 0.94463-0.57965 2.0288-0.86949 3.2526-0.86951 1.8571 2e-5 3.2418 0.46698 4.1543 1.4009 0.92316 0.9232 1.3848 2.3294 1.3848 4.2187v11.932h-2.0127v-11.771c-3e-5 -1.4384-0.27913-2.469-0.8373-3.0916-0.55823-0.62259-1.476-0.9339-2.7534-0.93391-1.5136 1e-5 -2.7266 0.46697-3.639 1.4009-0.91246 0.93392-1.3687 2.1577-1.3687 3.6712v10.724h-1.9805v-11.577c-2e-5 -1.417-0.29522-2.469-0.88561-3.156-0.59042-0.68701-1.4975-1.0305-2.7212-1.0305-1.5029 2e-5 -2.7212 0.47771-3.6551 1.4331-0.92318 0.9554-1.3848 2.206-1.3848 3.7518v10.579h-1.9805"/><path d="m155.18-148.06v0.0966c0 2.0933 0.50453 3.7625 1.5136 5.0077 1.009 1.2345 2.3616 1.8517 4.0577 1.8517 1.3418 0 2.4636-0.35961 3.3653-1.0788 0.9017-0.72995 1.4492-1.7229 1.6424-2.9789h1.9805c-0.21471 1.739-0.96613 3.1345-2.2543 4.1865-1.2882 1.0413-2.9091 1.5619-4.8628 1.5619-2.3294-1e-5 -4.1543-0.789-5.4747-2.367s-1.9805-3.7678-1.9805-6.5696c0-2.8554 0.66018-5.0828 1.9805-6.6823 1.3311-1.5994 3.1774-2.3992 5.5391-2.3992 2.2972 2e-5 4.0845 0.76755 5.362 2.3026 1.2881 1.5243 1.9322 3.6605 1.9322 6.4086v0.66018h-12.801m0.0322-1.5941 10.724 0.0161c-0.0859-1.8893-0.60115-3.3707-1.5458-4.4441-0.93393-1.0842-2.1791-1.6263-3.7357-1.6263-1.5673 2e-5 -2.8447 0.54748-3.8323 1.6424-0.97686 1.095-1.5136 2.5656-1.6102 4.4119"/><path d="m180.11-141.83h4.5891c1.7927 0 3.1023-0.0644 3.9289-0.19322 0.82655-0.13955 1.5136-0.37034 2.061-0.69238 1.2023-0.71922 2.0986-1.8142 2.689-3.2848 0.59039-1.4814 0.88559-3.3868 0.88561-5.7162-2e-5 -2.2221-0.28449-4.0684-0.85341-5.5391-0.56895-1.4814-1.417-2.5924-2.5441-3.3331-0.57969-0.38642-1.2935-0.66016-2.1416-0.8212-0.83732-0.16099-2.2596-0.2415-4.267-0.24153h-4.3475v19.822m3.3975-21.77h1.6102c1.9537 2e-5 3.419 0.102 4.3958 0.30594 0.97684 0.20398 1.8195 0.53138 2.528 0.98221 1.4599 0.9232 2.5709 2.2865 3.3331 4.0899 0.77287 1.7927 1.1593 3.9396 1.1593 6.4408-2e-5 2.6944-0.41867 4.9594-1.256 6.795-0.83732 1.8356-2.0772 3.1989-3.7196 4.0899-0.68703 0.36497-1.5297 0.62797-2.528 0.78899-0.99833 0.15029-2.5226 0.22543-4.573 0.22543h-6.5213v-23.718h5.5713"/><path d="m200.85-148.41c0 2.2972 0.50452 4.0792 1.5136 5.3458 1.0198 1.2667 2.4475 1.9 4.2831 1.9 1.8571 0 3.2902-0.62797 4.2992-1.8839 1.009-1.2559 1.5136-3.0433 1.5136-5.3619-2e-5 -2.3187-0.50455-4.106-1.5136-5.362-1.0091-1.2667-2.4421-1.9-4.2992-1.9-1.8356 1e-5 -3.2633 0.63336-4.2831 1.9-1.0091 1.2667-1.5136 3.054-1.5136 5.362m-2.045 0c0-2.8661 0.68165-5.0828 2.045-6.6501 1.374-1.578 3.3063-2.367 5.7967-2.367 2.5012 2e-5 4.4388 0.78902 5.8128 2.367 1.3848 1.5673 2.0771 3.784 2.0772 6.6501-2e-5 2.8447-0.68704 5.0506-2.061 6.6179-1.374 1.5672-3.317 2.3509-5.8289 2.3509-2.4904 0-4.4227-0.77826-5.7967-2.3348-1.3633-1.5672-2.045-3.7786-2.045-6.634"/><path d="m229.01-145.79h1.9805c-0.1825 1.9644-0.90709 3.5156-2.1738 4.6535-1.2667 1.1271-2.9145 1.6907-4.9433 1.6907-2.3187 0-4.1489-0.79436-5.4908-2.3831-1.3311-1.5887-1.9966-3.7518-1.9966-6.4891 0-2.8339 0.67628-5.0614 2.0288-6.6823 1.3633-1.6209 3.2258-2.4314 5.5874-2.4314 1.9215 2e-5 3.4995 0.54212 4.734 1.6263 1.2452 1.0735 1.9161 2.4904 2.0127 4.2509h-1.9c-0.16103-1.2452-0.68703-2.2435-1.578-2.995-0.88025-0.75141-1.9698-1.1271-3.2687-1.1271-1.7068 1e-5 -3.0648 0.64409-4.0738 1.9322-0.99832 1.2882-1.4975 3.0379-1.4975 5.2492 0 2.265 0.50453 4.0577 1.5136 5.378 1.0198 1.3204 2.3831 1.9805 4.0899 1.9805 1.3311 0 2.4421-0.41328 3.3331-1.2398 0.89096-0.82657 1.4384-1.9644 1.6424-3.4136"/><path d="m246.28-157v17.116h-1.9161v-2.7373c-0.65482 1.0842-1.4546 1.8893-2.3992 2.4153-0.93392 0.526-2.045 0.78899-3.3331 0.789-1.9322-1e-5 -3.3868-0.50453-4.3636-1.5136-0.96612-1.0198-1.4492-2.5387-1.4492-4.5568v-11.513h1.9805v11.046c-1e-5 1.7068 0.32203 2.9198 0.96611 3.639 0.64408 0.71923 1.7175 1.0788 3.2204 1.0788 1.6424 0 2.9359-0.49916 3.8806-1.4975 0.95537-1.009 1.4331-2.3884 1.4331-4.1382v-10.128h1.9805"/><path d="m249.36-139.88v-17.116h1.8517v2.8339c0.57966-1.052 1.3311-1.8571 2.2543-2.4153 0.9339-0.56892 1.9966-0.85339 3.1882-0.85341 1.2774 2e-5 2.3401 0.29522 3.1882 0.88561 0.84802 0.57969 1.4116 1.4062 1.6907 2.4797 0.56892-1.0949 1.3204-1.9268 2.2543-2.4958 0.94463-0.57965 2.0288-0.86949 3.2526-0.86951 1.8571 2e-5 3.2418 0.46698 4.1543 1.4009 0.92316 0.9232 1.3848 2.3294 1.3848 4.2187v11.932h-2.0127v-11.771c-3e-5 -1.4384-0.27913-2.469-0.8373-3.0916-0.55823-0.62259-1.476-0.9339-2.7534-0.93391-1.5136 1e-5 -2.7266 0.46697-3.639 1.4009-0.91246 0.93392-1.3687 2.1577-1.3687 3.6712v10.724h-1.9805v-11.577c-2e-5 -1.417-0.29522-2.469-0.88561-3.156-0.59042-0.68701-1.4975-1.0305-2.7212-1.0305-1.5029 2e-5 -2.7212 0.47771-3.6551 1.4331-0.92318 0.9554-1.3848 2.206-1.3848 3.7518v10.579h-1.9805"/><path d="m276.66-148.06v0.0966c0 2.0933 0.50452 3.7625 1.5136 5.0077 1.009 1.2345 2.3616 1.8517 4.0577 1.8517 1.3418 0 2.4636-0.35961 3.3653-1.0788 0.9017-0.72995 1.4492-1.7229 1.6424-2.9789h1.9805c-0.21471 1.739-0.96613 3.1345-2.2543 4.1865-1.2882 1.0413-2.9091 1.5619-4.8628 1.5619-2.3294-1e-5 -4.1543-0.789-5.4747-2.367s-1.9805-3.7678-1.9805-6.5696c0-2.8554 0.66018-5.0828 1.9805-6.6823 1.3311-1.5994 3.1774-2.3992 5.5391-2.3992 2.2972 2e-5 4.0845 0.76755 5.362 2.3026 1.2881 1.5243 1.9322 3.6605 1.9322 6.4086v0.66018h-12.801m0.0322-1.5941 10.724 0.0161c-0.0859-1.8893-0.60115-3.3707-1.5458-4.4441-0.93393-1.0842-2.1791-1.6263-3.7357-1.6263-1.5673 2e-5 -2.8447 0.54748-3.8323 1.6424-0.97686 1.095-1.5136 2.5656-1.6102 4.4119"/><path d="m291.59-139.88v-17.116h1.9161v2.7373c0.64407-1.052 1.4384-1.841 2.3831-2.367 0.94464-0.53671 2.0396-0.80508 3.2848-0.8051 1.1808 2e-5 2.2167 0.20935 3.1077 0.62798 0.89096 0.41867 1.5726 1.0144 2.045 1.7873 0.24688 0.39719 0.424 0.88025 0.53136 1.4492 0.10733 0.55822 0.161 1.4814 0.16102 2.7695v10.917h-2.045v-10.611c-1e-5 -2.0074-0.31132-3.3653-0.93391-4.0738-0.61189-0.7192-1.6961-1.0788-3.2526-1.0788-1.5995 2e-5 -2.8662 0.50991-3.8001 1.5297-0.92318 1.0091-1.3848 2.3885-1.3848 4.1382v10.096h-2.0128"/><path d="m310.61-161.91v4.9111h3.1721v1.6102h-3.1721v12.479c0 0.72996 0.0912 1.213 0.27374 1.4492 0.18248 0.23616 0.50989 0.35424 0.98222 0.35424 0.20395 0 0.43474-0.0161 0.69238-0.0483 0.25762-0.0429 0.66017-0.12344 1.2076-0.24152l0.0161 1.578c-0.48307 0.12881-0.92319 0.22006-1.3204 0.27373-0.39719 0.0644-0.7729 0.0966-1.1271 0.0966-0.98759 0-1.6853-0.2469-2.0932-0.74069-0.40792-0.50453-0.61188-1.4116-0.61188-2.7212v-12.479h-2.3348v-1.6102h2.3348v-4.9111h1.9805"/><path d="m326.6-148.85c-0.52601 0.19324-1.2023 0.34889-2.0288 0.46696-0.81585 0.11809-2.1362 0.22544-3.9611 0.32204-1.2667 0.33278-2.2221 0.8051-2.8662 1.417-0.64408 0.61188-0.96612 1.3472-0.96612 2.206 0 0.97685 0.34351 1.7551 1.0305 2.3348 0.69774 0.57967 1.6424 0.86951 2.8339 0.86951 1.8142 0 3.258-0.46696 4.3314-1.4009 1.0842-0.94465 1.6263-2.2274 1.6263-3.8484v-2.367m0.12882 6.4891c-0.90172 0.97685-1.8786 1.7068-2.9306 2.1899-1.052 0.48306-2.1845 0.72459-3.3975 0.72459-1.7283 0-3.1077-0.45085-4.1382-1.3526-1.0198-0.90171-1.5297-2.104-1.5297-3.6068 0-0.97684 0.23079-1.8302 0.69238-2.5602 0.47232-0.72995 1.154-1.3042 2.045-1.7229 1.0198-0.46158 2.7212-0.78362 5.1043-0.96611 0.46158-0.0322 0.81045-0.059 1.0466-0.0805 0.13954-0.0322 0.3274-0.0698 0.56357-0.11272 1.6316-0.33276 2.4475-1.0359 2.4475-2.1094-2e-5 -1.3311-0.33279-2.2811-0.99832-2.85-0.65483-0.57965-1.739-0.86949-3.2526-0.8695-1.5351 1e-5 -2.7105 0.32205-3.5263 0.96611-0.81584 0.63336-1.256 1.578-1.3204 2.834l-1.9483-0.0161c0.0429-1.7068 0.67091-3.054 1.8839-4.0416 1.213-0.99831 2.85-1.4975 4.9111-1.4975 2.0503 2e-5 3.6068 0.44014 4.6696 1.3204 1.0627 0.88026 1.5941 2.1684 1.5941 3.8645v9.3391c-1e-5 0.70849 0.0859 1.1486 0.25763 1.3204 0.17174 0.17176 0.49378 0.25763 0.96612 0.25763h0.38645c0.10732-0.0107 0.22004-0.0215 0.33814-0.0322v1.4814c-0.24692 0.0537-0.49381 0.0912-0.74069 0.11271-0.24692 0.0322-0.47234 0.0483-0.67629 0.0483-0.81584 0-1.4277-0.19859-1.8356-0.59577-0.40793-0.39718-0.61188-0.98759-0.61187-1.7712v-0.27373"/><path d="m334.55-161.91v4.9111h3.1721v1.6102h-3.1721v12.479c-1e-5 0.72996 0.0912 1.213 0.27373 1.4492 0.18248 0.23616 0.50989 0.35424 0.98222 0.35424 0.20395 0 0.43475-0.0161 0.69238-0.0483 0.25763-0.0429 0.66018-0.12344 1.2076-0.24152l0.0161 1.578c-0.48306 0.12881-0.92318 0.22006-1.3204 0.27373-0.39719 0.0644-0.7729 0.0966-1.1271 0.0966-0.9876 0-1.6854-0.2469-2.0933-0.74069-0.40792-0.50453-0.61188-1.4116-0.61187-2.7212v-12.479h-2.3348v-1.6102h2.3348v-4.9111h1.9805"/><path d="m339.74-160.62v-2.9789h1.9644v2.9789h-1.9644m0 20.739v-17.116h1.9644v17.116h-1.9644"/><path d="m346.18-148.41c0 2.2972 0.50453 4.0792 1.5136 5.3458 1.0198 1.2667 2.4475 1.9 4.2831 1.9 1.8571 0 3.2902-0.62797 4.2992-1.8839 1.009-1.2559 1.5136-3.0433 1.5136-5.3619-2e-5 -2.3187-0.50455-4.106-1.5136-5.362-1.0091-1.2667-2.4421-1.9-4.2992-1.9-1.8356 1e-5 -3.2633 0.63336-4.2831 1.9-1.009 1.2667-1.5136 3.054-1.5136 5.362m-2.045 0c0-2.8661 0.68165-5.0828 2.045-6.6501 1.374-1.578 3.3063-2.367 5.7967-2.367 2.5012 2e-5 4.4388 0.78902 5.8128 2.367 1.3848 1.5673 2.0771 3.784 2.0772 6.6501-2e-5 2.8447-0.68704 5.0506-2.061 6.6179-1.374 1.5672-3.317 2.3509-5.8289 2.3509-2.4904 0-4.4227-0.77826-5.7967-2.3348-1.3633-1.5672-2.045-3.7786-2.045-6.634"/><path d="m362.05-139.88v-17.116h1.9161v2.7373c0.64407-1.052 1.4384-1.841 2.3831-2.367 0.94464-0.53671 2.0396-0.80508 3.2848-0.8051 1.1808 2e-5 2.2167 0.20935 3.1077 0.62798 0.89096 0.41867 1.5726 1.0144 2.045 1.7873 0.24688 0.39719 0.424 0.88025 0.53136 1.4492 0.10733 0.55822 0.161 1.4814 0.16102 2.7695v10.917h-2.045v-10.611c-1e-5 -2.0074-0.31131-3.3653-0.93391-4.0738-0.61189-0.7192-1.6961-1.0788-3.2526-1.0788-1.5995 2e-5 -2.8662 0.50991-3.8001 1.5297-0.92319 1.0091-1.3848 2.3885-1.3848 4.1382v10.096h-2.0128"/></g></g></svg>
